<?xml version="1.0" encoding="UTF-8" standalone="no"?>
<!-- Created with Inkscape (http://www.inkscape.org/) -->

<svg
   width="210mm"
   height="297mm"
   viewBox="0 0 210 297"
   version="1.1"
   id="svg10963"
   inkscape:version="1.2.2 (b0a8486541, 2022-12-01)"
   sodipodi:docname="flipchip.svg"
   xmlns:inkscape="http://www.inkscape.org/namespaces/inkscape"
   xmlns:sodipodi="http://sodipodi.sourceforge.net/DTD/sodipodi-0.dtd"
   xmlns:xlink="http://www.w3.org/1999/xlink"
   xmlns="http://www.w3.org/2000/svg"
   xmlns:svg="http://www.w3.org/2000/svg">
  <sodipodi:namedview
     id="namedview10965"
     pagecolor="#ffffff"
     bordercolor="#000000"
     borderopacity="0.25"
     inkscape:showpageshadow="2"
     inkscape:pageopacity="0.0"
     inkscape:pagecheckerboard="0"
     inkscape:deskcolor="#d1d1d1"
     inkscape:document-units="mm"
     showgrid="false"
     inkscape:zoom="2.4173545"
     inkscape:cx="398.98989"
     inkscape:cy="272.81891"
     inkscape:window-width="2560"
     inkscape:window-height="1371"
     inkscape:window-x="0"
     inkscape:window-y="32"
     inkscape:window-maximized="1"
     inkscape:current-layer="layer1" />
  <defs
     id="defs10960">
    <linearGradient
       id="linearGradient11577"
       inkscape:swatch="solid">
      <stop
         style="stop-color:#ffffff;stop-opacity:1;"
         offset="0"
         id="stop11575" />
    </linearGradient>
    <linearGradient
       id="linearGradient11571"
       inkscape:swatch="solid">
      <stop
         style="stop-color:#0000ff;stop-opacity:1;"
         offset="0"
         id="stop11569" />
    </linearGradient>
    <linearGradient
       id="linearGradient11565"
       inkscape:swatch="solid">
      <stop
         style="stop-color:#008000;stop-opacity:1;"
         offset="0"
         id="stop11563" />
    </linearGradient>
    <linearGradient
       id="linearGradient11559"
       inkscape:swatch="solid">
      <stop
         style="stop-color:#000000;stop-opacity:1;"
         offset="0"
         id="stop11557" />
    </linearGradient>
    <linearGradient
       inkscape:collect="always"
       xlink:href="#linearGradient11559"
       id="linearGradient11561"
       x1="58.342392"
       y1="58.527493"
       x2="175.8351"
       y2="58.527493"
       gradientUnits="userSpaceOnUse" />
    <linearGradient
       inkscape:collect="always"
       xlink:href="#linearGradient11565"
       id="linearGradient11567"
       x1="58.342392"
       y1="58.527493"
       x2="175.8351"
       y2="58.527493"
       gradientUnits="userSpaceOnUse" />
    <linearGradient
       inkscape:collect="always"
       xlink:href="#linearGradient11577"
       id="linearGradient11579"
       x1="84.67508"
       y1="27.412878"
       x2="133.43051"
       y2="27.412878"
       gradientUnits="userSpaceOnUse"
       gradientTransform="translate(8.8787328,11.632035)" />
    <linearGradient
       inkscape:collect="always"
       xlink:href="#linearGradient11565"
       id="linearGradient12347"
       gradientUnits="userSpaceOnUse"
       x1="58.342392"
       y1="58.527493"
       x2="175.8351"
       y2="58.527493"
       gradientTransform="translate(0.64478628,48.481357)" />
    <linearGradient
       inkscape:collect="always"
       xlink:href="#linearGradient11559"
       id="linearGradient12349"
       gradientUnits="userSpaceOnUse"
       x1="58.342392"
       y1="58.527493"
       x2="175.8351"
       y2="58.527493"
       gradientTransform="translate(0.64478628,48.481357)" />
    <linearGradient
       inkscape:collect="always"
       xlink:href="#linearGradient11577"
       id="linearGradient12351"
       gradientUnits="userSpaceOnUse"
       gradientTransform="translate(10.057841,64.451249)"
       x1="84.67508"
       y1="27.412878"
       x2="133.43051"
       y2="27.412878" />
  </defs>
  <g
     inkscape:label="Layer 1"
     inkscape:groupmode="layer"
     id="layer1">
    <rect
       style="fill:url(#linearGradient11567);stroke:url(#linearGradient11561);stroke-width:0.5;stroke-linejoin:round;paint-order:fill markers stroke;fill-opacity:1;stroke-dasharray:none"
       id="rect11019"
       width="117.22771"
       height="19.495771"
       x="58.474892"
       y="48.779606" />
    <rect
       style="fill:#000000;fill-opacity:1;stroke:url(#linearGradient11579);stroke-width:0.5;stroke-linejoin:round;stroke-dasharray:none;paint-order:fill markers stroke"
       id="rect11021"
       width="48.490429"
       height="9.7039785"
       x="93.686302"
       y="34.192921" />
    <ellipse
       style="fill:#ffee00;fill-opacity:1;stroke:#000000;stroke-width:0.264999;stroke-linejoin:round;paint-order:fill markers stroke"
       id="path11075"
       cx="98.901115"
       cy="46.132725"
       rx="2.3528254"
       ry="2.3432674" />
    <ellipse
       style="fill:#ffee00;fill-opacity:1;stroke:#000000;stroke-width:0.264999;stroke-linejoin:round;paint-order:fill markers stroke"
       id="path11075-7"
       cx="108.28829"
       cy="46.222885"
       rx="2.3528254"
       ry="2.3432674" />
    <ellipse
       style="fill:#ffee00;fill-opacity:1;stroke:#000000;stroke-width:0.264999;stroke-linejoin:round;paint-order:fill markers stroke"
       id="path11075-7-4"
       cx="117.63259"
       cy="46.13736"
       rx="2.3528254"
       ry="2.3432674" />
    <ellipse
       style="fill:#ffee00;fill-opacity:1;stroke:#000000;stroke-width:0.264999;stroke-linejoin:round;paint-order:fill markers stroke"
       id="path11075-7-4-5"
       cx="126.49913"
       cy="46.198799"
       rx="2.3528254"
       ry="2.3432674" />
    <ellipse
       style="fill:#ffee00;fill-opacity:1;stroke:#000000;stroke-width:0.264999;stroke-linejoin:round;paint-order:fill markers stroke"
       id="path11075-7-4-5-2"
       cx="136.5164"
       cy="46.212711"
       rx="2.3528254"
       ry="2.3432674" />
    <text
       xml:space="preserve"
       style="font-size:3.87068px;fill:#ffffff;fill-opacity:1;stroke:none;stroke-width:0.609555;stroke-linejoin:round;stroke-dasharray:none;paint-order:fill markers stroke"
       x="107.0498"
       y="60.689285"
       id="text11743"
       transform="scale(1.0124768,0.98767697)"><tspan
         sodipodi:role="line"
         id="tspan11741"
         style="fill:#ffffff;fill-opacity:1;stroke:none;stroke-width:0.609556"
         x="107.0498"
         y="60.689285">Interposer</tspan></text>
    <text
       xml:space="preserve"
       style="font-size:3.87068px;fill:#ffffff;fill-opacity:1;stroke:none;stroke-width:0.609555;stroke-linejoin:round;stroke-dasharray:none;paint-order:fill markers stroke"
       x="113.71795"
       y="40.618286"
       id="text11743-5"
       transform="scale(1.0124768,0.98767696)"><tspan
         sodipodi:role="line"
         id="tspan11741-4"
         style="fill:#ffffff;fill-opacity:1;stroke:none;stroke-width:0.609556"
         x="113.71795"
         y="40.618286">Die</tspan></text>
    <text
       xml:space="preserve"
       style="font-size:3.87068px;fill:#000000;fill-opacity:1;stroke:none;stroke-width:0.609555;stroke-linejoin:round;stroke-dasharray:none;paint-order:fill markers stroke"
       x="139.90715"
       y="48.31575"
       id="text11743-5-7"
       transform="scale(1.0124768,0.98767696)"><tspan
         sodipodi:role="line"
         id="tspan11741-4-4"
         style="fill:#000000;fill-opacity:1;stroke:none;stroke-width:0.609556"
         x="139.90715"
         y="48.31575">Gold Bumps</tspan></text>
    <text
       xml:space="preserve"
       style="font-size:3.87068px;fill:#000000;fill-opacity:1;stroke:none;stroke-width:0.609555;stroke-linejoin:round;stroke-dasharray:none;paint-order:fill markers stroke"
       x="156.56256"
       y="97.298492"
       id="text11743-5-7-4"
       transform="scale(1.0124768,0.98767696)"><tspan
         sodipodi:role="line"
         style="fill:#000000;fill-opacity:1;stroke:none;stroke-width:0.609556"
         x="156.56256"
         y="97.298492"
         id="tspan14464">Gold Wires</tspan></text>
    <rect
       style="fill:url(#linearGradient12347);fill-opacity:1;stroke:url(#linearGradient12349);stroke-width:0.5;stroke-linejoin:round;stroke-dasharray:none;paint-order:fill markers stroke"
       id="rect11019-7"
       width="117.22771"
       height="19.495771"
       x="59.119671"
       y="97.260963" />
    <rect
       style="fill:#000000;fill-opacity:1;stroke:url(#linearGradient12351);stroke-width:0.5;stroke-linejoin:round;stroke-dasharray:none;paint-order:fill markers stroke"
       id="rect11021-8"
       width="48.490429"
       height="9.7039785"
       x="94.86541"
       y="87.012138" />
    <text
       xml:space="preserve"
       style="font-size:3.87068px;fill:#ffffff;fill-opacity:1;stroke:none;stroke-width:0.609555;stroke-linejoin:round;stroke-dasharray:none;paint-order:fill markers stroke"
       x="107.68665"
       y="109.77554"
       id="text11743-1"
       transform="scale(1.0124768,0.98767696)"><tspan
         sodipodi:role="line"
         id="tspan11741-49"
         style="fill:#ffffff;fill-opacity:1;stroke:none;stroke-width:0.609556"
         x="107.68665"
         y="109.77554">Interposer</tspan></text>
    <text
       xml:space="preserve"
       style="font-size:3.87068px;fill:#ffffff;fill-opacity:1;stroke:none;stroke-width:0.609555;stroke-linejoin:round;stroke-dasharray:none;paint-order:fill markers stroke"
       x="113.88305"
       y="94.160332"
       id="text11743-5-2"
       transform="scale(1.0124768,0.98767696)"><tspan
         sodipodi:role="line"
         id="tspan11741-4-0"
         style="fill:#ffffff;fill-opacity:1;stroke:none;stroke-width:0.609556"
         x="113.88305"
         y="94.160332">Die</tspan></text>
    <path
       style="fill:#ffff00;fill-opacity:1;stroke:none;stroke-width:0.499999;stroke-linejoin:round;stroke-dasharray:none;paint-order:fill markers stroke"
       id="path14115"
       d="m 141.83432,87.120509 c -0.0467,-0.489492 -0.0831,-0.979858 -0.10635,-1.471012 0.0399,-0.08372 -0.0731,-0.298629 -5.3e-4,-0.373594 0.0859,-0.08874 -0.0373,0.08964 -0.0199,0.115689 0.0116,0.01736 0.0345,-0.02347 0.0518,-0.03521 0.24632,-0.166624 0.53475,-0.207463 0.8229,-0.250989 0.36769,-0.03961 0.73567,-0.04862 1.10271,-0.09557 0.42798,-0.05993 0.8604,-0.07456 1.29184,-0.08614 0.41983,-0.01355 0.83868,-0.0231 1.25194,0.06057 0.26954,0.0636 0.55813,0.132879 0.77076,0.319727 0.26622,0.238202 0.4452,0.557483 0.59964,0.87552 0.18724,0.404344 0.38453,0.803307 0.58746,1.200047 0.15374,0.299354 0.33432,0.586933 0.46666,0.896715 0.17356,0.318669 0.21577,0.67628 0.28255,1.026459 0.0951,0.469336 0.18565,0.937863 0.24128,1.413801 0.0375,0.372292 0.046,0.74654 0.0497,1.120423 0.002,0.409167 1.3e-4,0.818338 -5.3e-4,1.227505 -0.0138,0.351645 0.0234,0.706808 -0.0156,1.056971 -0.0595,0.377936 -0.0896,0.758835 -0.1101,1.140574 -0.0139,0.281416 -0.0167,0.563192 -0.0175,0.844896 -0.0114,0.216527 0.0189,0.436682 -0.007,0.652174 -0.063,0.704295 0.93301,0.793401 0.99602,0.08911 v 0 c 0.0187,-0.245718 0.01,-0.491908 0.0112,-0.738229 8e-4,-0.264896 0.003,-0.529863 0.0161,-0.794497 0.0196,-0.368276 0.0503,-0.735298 0.10709,-1.099957 0.0324,-0.382339 0.0158,-0.765953 0.02,-1.14944 5.3e-4,-0.413046 0.002,-0.826095 5.3e-4,-1.239139 -0.004,-0.409551 -0.0142,-0.819491 -0.0565,-1.22719 -0.0591,-0.499711 -0.1521,-0.992262 -0.25228,-1.485054 -0.0816,-0.424055 -0.14415,-0.855257 -0.34996,-1.242433 -0.14636,-0.324667 -0.32204,-0.634913 -0.49117,-0.948184 -0.20118,-0.393081 -0.39663,-0.788295 -0.58194,-1.189094 -0.22761,-0.451765 -0.48799,-0.89663 -0.88417,-1.222433 -0.35735,-0.262154 -0.75676,-0.4303 -1.1946,-0.510558 -0.48529,-0.08885 -0.97379,-0.101396 -1.4663,-0.07792 -0.46499,0.01262 -0.93088,0.02956 -1.39214,0.09391 -0.37528,0.04832 -0.75252,0.0511 -1.12807,0.09916 -0.46133,0.07249 -0.91659,0.172861 -1.2973,0.46028 -0.41422,0.350602 -0.44041,0.612542 -0.40319,1.119513 0.0241,0.506473 0.0614,1.012158 0.10959,1.51692 0.066,0.704022 1.06162,0.610703 0.99563,-0.09332 z" />
    <path
       style="fill:#ffff00;fill-opacity:1;stroke:none;stroke-width:0.499999;stroke-linejoin:round;stroke-dasharray:none;paint-order:fill markers stroke"
       id="path14117"
       d="m 138.9384,87.035221 c 0.0111,-0.317852 0.0367,-0.633257 0.0903,-0.94679 0.0713,-0.316611 0.12593,-0.636948 0.20736,-0.951209 0.0755,-0.264922 0.17724,-0.520949 0.27621,-0.777648 0.0986,-0.235519 0.21241,-0.464666 0.34386,-0.683553 0.10774,-0.204714 0.2226,-0.332867 0.40986,-0.463278 0.15843,-0.117059 0.33331,-0.185576 0.52028,-0.239326 0.27806,-0.07337 0.56541,-0.08382 0.8511,-0.09349 0.36503,-0.0093 0.7302,-0.0083 1.09531,-0.008 0.39867,5.29e-4 0.79734,0.0011 1.19601,0.0013 0.40511,1.82e-4 0.81021,1.98e-4 1.21532,2.09e-4 0.30692,0.0036 0.61416,-0.0076 0.92085,0.0063 0.2973,0.0075 0.59205,0.03871 0.8831,0.09939 0.22437,0.04346 0.436,0.115711 0.64176,0.213202 0.27259,0.126195 0.52358,0.291811 0.78189,0.443722 0.17299,0.108709 0.35932,0.201091 0.51677,0.332525 0.19991,0.163529 0.39203,0.336325 0.57754,0.515951 0.24715,0.225748 0.47768,0.468527 0.70287,0.715888 0.20928,0.24614 0.4052,0.504262 0.59549,0.765334 0.20121,0.281488 0.32552,0.60601 0.46606,0.919546 0.17862,0.398468 0.35807,0.796581 0.54754,1.190022 0.14564,0.284784 0.30842,0.561761 0.4346,0.856038 0.1185,0.291301 0.16981,0.601642 0.22308,0.909683 0.0822,0.436697 0.13146,0.878498 0.19991,1.317363 0.0508,0.333862 0.12272,0.662673 0.19509,0.99219 0.0446,0.217588 0.0867,0.434533 0.10658,0.655894 0.0158,0.192037 0.0159,0.38481 0.0166,0.577342 -0.01,0.19081 0.0164,0.379635 0.0353,0.568878 0.0131,0.155411 0.0164,0.311441 0.0185,0.467323 0.001,0.142602 0.001,0.285216 0.001,0.427823 -1.6e-4,0.127011 -2.2e-4,0.254024 -2.7e-4,0.381037 -3e-5,0.12636 -3e-5,0.25272 -3e-5,0.379079 0,0.128244 0,0.256485 0,0.384726 0,0.112768 0,0.225533 0,0.338299 0,0.07665 0,0.153294 0,0.229941 0,0.06184 0,0.123688 0,0.185529 0,0.02774 0,0.05548 0,0.08322 0,0.707107 1,0.707107 1,0 v 0 c 0,-0.02774 0,-0.05548 0,-0.08322 0,-0.06184 0,-0.123685 0,-0.185529 0,-0.07665 0,-0.153294 0,-0.229941 0,-0.112768 0,-0.225536 0,-0.338305 0,-0.128238 0,-0.256476 0,-0.384714 0,-0.126254 0,-0.252505 3e-5,-0.378759 5e-5,-0.126823 1.1e-4,-0.253643 2.7e-4,-0.380466 1.3e-4,-0.147412 5.3e-4,-0.29483 -0.001,-0.44224 -0.003,-0.184849 -0.007,-0.369861 -0.0235,-0.554077 -0.016,-0.157375 -0.0405,-0.3136 -0.0303,-0.472403 -8e-4,-0.221943 -0.002,-0.444143 -0.0208,-0.665449 -0.0248,-0.262702 -0.0715,-0.521128 -0.12579,-0.779256 -0.0684,-0.309345 -0.13629,-0.617831 -0.18365,-0.931449 -0.0697,-0.444209 -0.11876,-0.891599 -0.20259,-1.333588 -0.0671,-0.386545 -0.13821,-0.774388 -0.2915,-1.138057 -0.1341,-0.304835 -0.2943,-0.597022 -0.45058,-0.890921 -0.18563,-0.385191 -0.36103,-0.775147 -0.53604,-1.165262 -0.16938,-0.377357 -0.32445,-0.764784 -0.57132,-1.100632 -0.2122,-0.28932 -0.42845,-0.576885 -0.66327,-0.848297 -0.23952,-0.262951 -0.48469,-0.521073 -0.74712,-0.761481 -0.20909,-0.201928 -0.42526,-0.396629 -0.65076,-0.580152 -0.19918,-0.154583 -0.4144,-0.28525 -0.63234,-0.411769 -0.28507,-0.167076 -0.56214,-0.349168 -0.86355,-0.486735 -0.27799,-0.129426 -0.5646,-0.228325 -0.86623,-0.287607 -0.34347,-0.06914 -0.69064,-0.110456 -1.04121,-0.118751 -0.32082,-0.01273 -0.6419,-0.0054 -0.96292,-0.0072 -0.40492,-10e-6 -0.80984,-2.6e-5 -1.21475,-2.06e-4 -0.39858,-2.36e-4 -0.79716,-5.29e-4 -1.19574,-0.0013 -0.37691,-2.65e-4 -0.75389,-0.0013 -1.13071,0.0086 -0.36918,0.01299 -0.73975,0.03337 -1.09768,0.133225 -0.29511,0.08758 -0.57413,0.205653 -0.82466,0.388321 -0.13212,0.09733 -0.18236,0.127543 -0.30252,0.245401 -0.15438,0.151432 -0.27171,0.332545 -0.38137,0.517465 -0.15836,0.268237 -0.29999,0.546229 -0.41742,0.83498 -0.11292,0.293026 -0.22804,0.585721 -0.31177,0.888857 -0.087,0.341897 -0.15017,0.689091 -0.22486,1.033793 -0.0612,0.368475 -0.0938,0.739195 -0.10412,1.11266 0,0.707107 1,0.707107 1,0 z" />
    <path
       style="fill:#ffff00;fill-opacity:1;stroke:none;stroke-width:0.499999;stroke-linejoin:round;stroke-dasharray:none;paint-order:fill markers stroke"
       id="path14119"
       d="m 136.49013,87.094469 c 0,-0.372589 0,-0.74518 0,-1.117769 0,-0.362733 0,-0.725467 0,-1.0882 0,-0.278468 0,-0.556937 0,-0.835408 0,-0.145405 0,-0.290809 0,-0.436214 0,-0.09475 -0.005,-0.05812 0.004,-0.110908 0.0116,-0.101938 0.058,-0.19594 0.10774,-0.2843 0.0712,-0.137162 0.18897,-0.239985 0.30684,-0.33651 0.17024,-0.153006 0.35936,-0.278032 0.55377,-0.397296 0.25201,-0.138147 0.51041,-0.265387 0.76978,-0.38948 0.25394,-0.116911 0.51597,-0.216019 0.77554,-0.319974 0.26482,-0.11141 0.53711,-0.197797 0.81956,-0.249446 0.24492,-0.05392 0.49537,-0.06882 0.74517,-0.0797 0.28056,5.29e-4 0.55979,-0.02564 0.83952,-0.04293 0.25974,-0.01471 0.51987,-0.01791 0.77995,-0.01976 0.26939,-0.0013 0.53879,-0.0011 0.80819,-7.94e-4 0.32191,1.64e-4 0.64382,2.28e-4 0.96573,2.65e-4 0.33144,3.1e-5 0.66289,2.9e-5 0.99433,2.9e-5 0.41322,-0.0038 0.82598,1.14e-4 1.23887,0.0168 0.52331,0.02233 1.03961,0.111516 1.55364,0.206295 0.34847,0.06494 0.7011,0.109813 1.04746,0.18618 0.1589,0.03504 0.30591,0.07975 0.46225,0.124489 0.38669,0.120272 0.76296,0.270351 1.12586,0.44968 0.27285,0.132797 0.51207,0.323938 0.74905,0.511242 0.29411,0.217887 0.59535,0.424804 0.88534,0.648316 0.32243,0.241488 0.63665,0.493337 0.94664,0.750464 0.26985,0.235897 0.48068,0.524579 0.68803,0.814091 0.17813,0.25662 0.37858,0.49837 0.54715,0.761715 0.0842,0.13159 0.1071,0.18942 0.17473,0.3293 0.13256,0.291605 0.20904,0.602194 0.28446,0.91214 0.0588,0.269643 0.1327,0.53511 0.20478,0.801376 0.0772,0.255254 0.12269,0.518279 0.19342,0.775086 0.0708,0.233759 0.13736,0.469233 0.21255,0.701675 0.0638,0.181801 0.10602,0.369639 0.16191,0.553765 0.0621,0.213434 0.1685,0.409583 0.21323,0.627819 0.0375,0.244518 0.0415,0.492276 0.0451,0.7391 -0.006,0.295471 0.007,0.589889 0.0268,0.884561 0.0165,0.228423 0.0235,0.457306 0.0268,0.686244 -0.008,0.270187 0.0115,0.537448 0.0481,0.804932 0.056,0.309668 0.10333,0.620659 0.15395,0.931193 0.0456,0.259791 0.11805,0.513252 0.18906,0.766828 0.0326,0.148148 0.0806,0.292439 0.10431,0.442466 0.0103,0.07565 0.0119,0.152069 0.0127,0.228298 2.5e-4,0.07047 -2.6e-4,0.140936 -5.3e-4,0.211405 -2.6e-4,0.07474 -2.6e-4,0.149492 -2.6e-4,0.224237 -2e-5,0.07089 -2e-5,0.141782 -2e-5,0.212674 1e-5,0.05365 1e-5,0.1073 1e-5,0.160952 1e-5,0.707107 1.00001,0.707091 1,-1.6e-5 v 0 c 0,-0.05366 0,-0.107315 -1e-5,-0.160973 0,-0.07074 0,-0.141478 1e-5,-0.212217 4e-5,-0.0736 8e-5,-0.147198 2.7e-4,-0.220797 2.6e-4,-0.07542 0.001,-0.150831 5.3e-4,-0.226248 -0.002,-0.127839 -0.006,-0.255892 -0.0263,-0.382407 -0.0319,-0.185108 -0.0831,-0.365231 -0.12776,-0.547505 -0.0612,-0.217787 -0.12428,-0.435235 -0.165,-0.658114 -0.0496,-0.302184 -0.0945,-0.605097 -0.1502,-0.906296 -0.0315,-0.227259 -0.0468,-0.453483 -0.0389,-0.68325 -0.004,-0.246623 -0.0113,-0.493188 -0.029,-0.739259 -0.0188,-0.277074 -0.0303,-0.553709 -0.0246,-0.831577 -0.005,-0.31532 -0.012,-0.632116 -0.0693,-0.943176 -0.0568,-0.242266 -0.1488,-0.468786 -0.23295,-0.702175 -0.0591,-0.189722 -0.10046,-0.384646 -0.1677,-0.572006 -0.0732,-0.218749 -0.13255,-0.442515 -0.20068,-0.662831 -0.0748,-0.251278 -0.10844,-0.513937 -0.19026,-0.763693 -0.0699,-0.258176 -0.14212,-0.515337 -0.1985,-0.776955 -0.093,-0.380645 -0.19175,-0.760955 -0.35897,-1.117224 -0.10746,-0.215201 -0.1197,-0.254082 -0.25024,-0.457515 -0.17156,-0.267351 -0.37426,-0.513596 -0.55578,-0.77394 -0.25731,-0.359021 -0.52492,-0.712317 -0.86249,-1.001364 -0.31923,-0.264784 -0.64282,-0.524137 -0.97474,-0.772935 -0.28701,-0.221049 -0.5838,-0.427553 -0.87621,-0.641191 -0.29256,-0.230534 -0.58995,-0.461164 -0.92714,-0.623538 -0.41723,-0.204439 -0.84851,-0.378341 -1.29323,-0.514086 -0.21453,-0.06088 -0.32845,-0.09657 -0.54849,-0.144976 -0.34857,-0.07668 -0.70329,-0.122576 -1.05404,-0.187414 -0.56059,-0.103193 -1.12389,-0.198351 -1.69454,-0.222034 -0.42631,-0.01712 -0.8525,-0.02156 -1.27914,-0.01762 -0.33141,0 -0.66281,3e-6 -0.99422,-2.9e-5 -0.32179,-4e-5 -0.64358,-1.03e-4 -0.96537,-2.64e-4 -0.27194,-1.33e-4 -0.54389,-5.3e-4 -0.81583,7.93e-4 -0.27834,0.0021 -0.55674,0.0057 -0.8347,0.02167 -0.27389,0.01704 -0.54721,0.04273 -0.82192,0.04199 -0.29652,0.01336 -0.5936,0.03315 -0.88452,0.09573 -0.34644,0.06574 -0.68279,0.167119 -1.00806,0.304271 -0.2797,0.112276 -0.56219,0.218922 -0.83537,0.34626 -0.29049,0.139287 -0.58025,0.281578 -0.86112,0.439227 -0.23559,0.144833 -0.46418,0.298627 -0.67188,0.482251 -0.21366,0.180832 -0.41628,0.378267 -0.54617,0.630137 -0.10957,0.208364 -0.20155,0.427373 -0.22261,0.664525 -0.016,0.21309 -0.006,0.426865 -0.009,0.640445 0,0.278471 0,0.55694 0,0.835408 0,0.362734 0,0.725467 0,1.0882 0,0.372589 0,0.74518 0,1.117769 0,0.707107 1,0.707107 1,0 z" />
    <path
       style="fill:#ffff00;fill-opacity:1;stroke:none;stroke-width:0.499999;stroke-linejoin:round;stroke-dasharray:none;paint-order:fill markers stroke"
       id="path14115-2"
       d="m 96.581161,87.055633 c 0.0467,-0.489492 0.0831,-0.979858 0.10635,-1.471012 -0.0399,-0.08372 0.0731,-0.298629 5.3e-4,-0.373594 -0.0859,-0.08874 0.0373,0.08964 0.0199,0.115689 -0.0116,0.01736 -0.0345,-0.02347 -0.0518,-0.03521 -0.24632,-0.166624 -0.53475,-0.207463 -0.8229,-0.250989 -0.36769,-0.03961 -0.73567,-0.04862 -1.10271,-0.09557 -0.42798,-0.05993 -0.8604,-0.07456 -1.29184,-0.08614 -0.41983,-0.01355 -0.83868,-0.0231 -1.25194,0.06057 -0.26954,0.0636 -0.55813,0.132879 -0.77076,0.319727 -0.26622,0.238202 -0.4452,0.557483 -0.59964,0.87552 -0.18724,0.404344 -0.38453,0.803307 -0.58746,1.200047 -0.15374,0.299354 -0.33432,0.586933 -0.46666,0.896715 -0.17356,0.318669 -0.21577,0.67628 -0.28255,1.026456 -0.0951,0.46934 -0.18565,0.93787 -0.24128,1.4138 -0.0375,0.3723 -0.046,0.74654 -0.0497,1.12043 -0.002,0.40916 -1.3e-4,0.81834 5.3e-4,1.2275 0.0138,0.35165 -0.0234,0.70681 0.0156,1.05697 0.0595,0.37794 0.0896,0.75884 0.1101,1.14058 0.0139,0.28141 0.0167,0.56319 0.0175,0.84489 0.0114,0.21653 -0.0189,0.43669 0.007,0.65218 0.063,0.70429 -0.93301,0.7934 -0.99602,0.0891 v 0 c -0.0187,-0.24572 -0.01,-0.49191 -0.0112,-0.73823 -8e-4,-0.2649 -0.003,-0.52986 -0.0161,-0.7945 -0.0196,-0.36827 -0.0503,-0.7353 -0.10709,-1.09996 -0.0324,-0.38233 -0.0158,-0.76595 -0.02,-1.14944 -5.3e-4,-0.41304 -0.002,-0.82609 -5.3e-4,-1.23913 0.004,-0.40956 0.0142,-0.8195 0.0565,-1.22719 0.0591,-0.49972 0.1521,-0.99227 0.25228,-1.48506 0.0816,-0.424054 0.14415,-0.855256 0.34996,-1.242432 0.14636,-0.324667 0.32204,-0.634913 0.49117,-0.948184 0.20118,-0.393081 0.39663,-0.788295 0.58194,-1.189094 0.22761,-0.451765 0.48799,-0.89663 0.88417,-1.222433 0.35735,-0.262154 0.75676,-0.4303 1.1946,-0.510558 0.48529,-0.08885 0.97379,-0.101396 1.4663,-0.07792 0.46499,0.01262 0.93088,0.02956 1.39214,0.09391 0.37528,0.04832 0.75252,0.0511 1.12807,0.09916 0.46133,0.07249 0.91659,0.172861 1.2973,0.46028 0.41422,0.350602 0.44041,0.612542 0.40319,1.119513 -0.0241,0.506473 -0.0614,1.012158 -0.10959,1.51692 -0.066,0.704022 -1.06162,0.610703 -0.99563,-0.09332 z" />
    <path
       style="fill:#ffff00;fill-opacity:1;stroke:none;stroke-width:0.499999;stroke-linejoin:round;stroke-dasharray:none;paint-order:fill markers stroke"
       id="path14117-6"
       d="m 99.477081,86.970345 c -0.0111,-0.317852 -0.0367,-0.633257 -0.0903,-0.94679 -0.0713,-0.316611 -0.12593,-0.636948 -0.20736,-0.951209 -0.0755,-0.264922 -0.17724,-0.520949 -0.27621,-0.777648 -0.0986,-0.235519 -0.21241,-0.464666 -0.34386,-0.683553 -0.10774,-0.204714 -0.2226,-0.332867 -0.40986,-0.463278 -0.15843,-0.117059 -0.33331,-0.185576 -0.52028,-0.239326 -0.27806,-0.07337 -0.56541,-0.08382 -0.8511,-0.09349 -0.36503,-0.0093 -0.7302,-0.0083 -1.09531,-0.008 -0.39867,5.29e-4 -0.79734,0.0011 -1.19601,0.0013 -0.40511,1.82e-4 -0.81021,1.98e-4 -1.21532,2.09e-4 -0.30692,0.0036 -0.61416,-0.0076 -0.92085,0.0063 -0.2973,0.0075 -0.59205,0.03871 -0.8831,0.09939 -0.22437,0.04346 -0.436,0.115711 -0.64176,0.213202 -0.27259,0.126195 -0.52358,0.291811 -0.78189,0.443722 -0.17299,0.108709 -0.35932,0.201091 -0.51677,0.332525 -0.19991,0.163529 -0.39203,0.336325 -0.57754,0.515951 -0.24715,0.225748 -0.47768,0.468527 -0.70287,0.715888 -0.20928,0.24614 -0.4052,0.504262 -0.59549,0.765334 -0.20121,0.281488 -0.32552,0.60601 -0.46606,0.919546 -0.17862,0.398468 -0.35807,0.796581 -0.54754,1.190022 -0.14564,0.284784 -0.30842,0.561761 -0.4346,0.856038 -0.1185,0.291304 -0.16981,0.601644 -0.22308,0.909684 -0.0822,0.4367 -0.13146,0.8785 -0.19991,1.31736 -0.0508,0.33386 -0.12272,0.66267 -0.19509,0.99219 -0.0446,0.21759 -0.0867,0.43453 -0.10658,0.6559 -0.0158,0.19203 -0.0159,0.38481 -0.0166,0.57734 0.01,0.19081 -0.0164,0.37963 -0.0353,0.56888 -0.0131,0.15541 -0.0164,0.31144 -0.0185,0.46732 -10e-4,0.1426 -10e-4,0.28521 -10e-4,0.42782 1.6e-4,0.12701 2.2e-4,0.25403 2.7e-4,0.38104 3e-5,0.12636 3e-5,0.25272 3e-5,0.37908 0,0.12824 0,0.25648 0,0.38472 0,0.11277 0,0.22554 0,0.3383 0,0.0767 0,0.1533 0,0.22994 0,0.0618 0,0.12369 0,0.18553 0,0.0277 0,0.0555 0,0.0832 0,0.70711 -1,0.70711 -1,0 v 0 c 0,-0.0277 0,-0.0555 0,-0.0832 0,-0.0618 0,-0.12368 0,-0.18553 0,-0.0766 0,-0.15329 0,-0.22994 0,-0.11277 0,-0.22553 0,-0.3383 0,-0.12824 0,-0.25648 0,-0.38472 0,-0.12625 0,-0.2525 -3e-5,-0.37876 -5e-5,-0.12682 -1.1e-4,-0.25364 -2.7e-4,-0.38046 -1.3e-4,-0.14741 -5.3e-4,-0.29483 10e-4,-0.44224 0.003,-0.18485 0.007,-0.36986 0.0235,-0.55408 0.016,-0.15737 0.0405,-0.3136 0.0303,-0.4724 8e-4,-0.22194 0.002,-0.44414 0.0208,-0.66545 0.0248,-0.2627 0.0715,-0.52113 0.12579,-0.77926 0.0684,-0.30934 0.13629,-0.61783 0.18365,-0.93145 0.0697,-0.4442 0.11876,-0.89159 0.20259,-1.33358 0.0671,-0.38655 0.13821,-0.774391 0.2915,-1.13806 0.1341,-0.304835 0.2943,-0.597022 0.45058,-0.890921 0.18563,-0.385191 0.36103,-0.775147 0.53604,-1.165262 0.16938,-0.377357 0.32445,-0.764784 0.57132,-1.100632 0.2122,-0.28932 0.42845,-0.576885 0.66327,-0.848297 0.23952,-0.262951 0.48469,-0.521073 0.74712,-0.761481 0.20909,-0.201928 0.42526,-0.396629 0.65076,-0.580152 0.19918,-0.154583 0.4144,-0.28525 0.63234,-0.411769 0.28507,-0.167076 0.56214,-0.349168 0.86355,-0.486735 0.27799,-0.129426 0.5646,-0.228325 0.86623,-0.287607 0.34347,-0.06914 0.69064,-0.110456 1.04121,-0.118751 0.32082,-0.01273 0.6419,-0.0054 0.96292,-0.0072 0.40492,-10e-6 0.80984,-2.6e-5 1.21475,-2.06e-4 0.39858,-2.36e-4 0.79716,-5.29e-4 1.19574,-0.0013 0.37691,-2.65e-4 0.75389,-0.0013 1.13071,0.0086 0.36918,0.01299 0.73975,0.03337 1.09768,0.133225 0.29511,0.08758 0.57413,0.205653 0.82466,0.388321 0.13212,0.09733 0.18236,0.127543 0.30252,0.245401 0.15438,0.151432 0.27171,0.332545 0.38137,0.517465 0.15836,0.268237 0.29999,0.546229 0.41742,0.83498 0.11292,0.293026 0.228039,0.585721 0.311769,0.888857 0.087,0.341897 0.15017,0.689091 0.22486,1.033793 0.0612,0.368475 0.0938,0.739195 0.10412,1.11266 0,0.707107 -0.999999,0.707107 -0.999999,0 z" />
    <path
       style="fill:#ffff00;fill-opacity:1;stroke:none;stroke-width:0.499999;stroke-linejoin:round;stroke-dasharray:none;paint-order:fill markers stroke"
       id="path14119-6"
       d="m 101.92535,87.029593 c 0,-0.372589 0,-0.74518 0,-1.117769 0,-0.362733 0,-0.725467 0,-1.0882 0,-0.278468 0,-0.556937 0,-0.835408 0,-0.145405 0,-0.290809 0,-0.436214 0,-0.09475 0.005,-0.05812 -0.004,-0.110908 -0.0116,-0.101938 -0.058,-0.19594 -0.10774,-0.2843 -0.0712,-0.137162 -0.18897,-0.239985 -0.30684,-0.33651 -0.17024,-0.153006 -0.35936,-0.278032 -0.55377,-0.397296 -0.25201,-0.138147 -0.51041,-0.265387 -0.76978,-0.38948 -0.253939,-0.116911 -0.515969,-0.216019 -0.775539,-0.319974 -0.26482,-0.11141 -0.53711,-0.197797 -0.81956,-0.249446 -0.24492,-0.05392 -0.49537,-0.06882 -0.74517,-0.0797 -0.28056,5.29e-4 -0.55979,-0.02564 -0.83952,-0.04293 -0.25974,-0.01471 -0.51987,-0.01791 -0.77995,-0.01976 -0.26939,-0.0013 -0.53879,-0.0011 -0.80819,-7.94e-4 -0.32191,1.64e-4 -0.64382,2.28e-4 -0.96573,2.65e-4 -0.33144,3.1e-5 -0.66289,2.9e-5 -0.99433,2.9e-5 -0.41322,-0.0038 -0.82598,1.14e-4 -1.23887,0.0168 -0.52331,0.02233 -1.03961,0.111516 -1.55364,0.206295 -0.34847,0.06494 -0.7011,0.109813 -1.04746,0.18618 -0.1589,0.03504 -0.30591,0.07975 -0.46225,0.124489 -0.38669,0.120272 -0.76296,0.270351 -1.12586,0.44968 -0.27285,0.132797 -0.51207,0.323938 -0.74905,0.511242 -0.29411,0.217887 -0.59535,0.424804 -0.88534,0.648316 -0.32243,0.241488 -0.63665,0.493337 -0.94664,0.750464 -0.26985,0.235897 -0.48068,0.524579 -0.68803,0.814091 -0.17813,0.25662 -0.37858,0.49837 -0.54715,0.761715 -0.0842,0.13159 -0.1071,0.18942 -0.17473,0.3293 -0.13256,0.291605 -0.20904,0.602194 -0.28446,0.91214 -0.0588,0.269643 -0.1327,0.53511 -0.20478,0.801376 -0.0772,0.255254 -0.12269,0.518279 -0.19342,0.775086 -0.0708,0.233759 -0.13736,0.46923 -0.21255,0.70167 -0.0638,0.18181 -0.10602,0.36964 -0.16191,0.55377 -0.0621,0.21343 -0.1685,0.40958 -0.21323,0.62782 -0.0375,0.24452 -0.0415,0.49227 -0.0451,0.7391 0.006,0.29547 -0.007,0.58989 -0.0268,0.88456 -0.0165,0.22842 -0.0235,0.45731 -0.0268,0.68624 0.008,0.27019 -0.0115,0.53745 -0.0481,0.80494 -0.056,0.30966 -0.10333,0.62065 -0.15395,0.93119 -0.0456,0.25979 -0.11805,0.51325 -0.18906,0.76683 -0.0326,0.14814 -0.0806,0.29244 -0.10431,0.44246 -0.0103,0.0757 -0.0119,0.15207 -0.0127,0.2283 -2.5e-4,0.0705 2.6e-4,0.14094 5.3e-4,0.21141 2.6e-4,0.0747 2.6e-4,0.14949 2.6e-4,0.22423 2e-5,0.0709 2e-5,0.14178 2e-5,0.21268 -1e-5,0.0537 -1e-5,0.1073 -1e-5,0.16095 -1e-5,0.70711 -1.00001,0.70709 -1,-2e-5 v 0 c 0,-0.0537 0,-0.10731 1e-5,-0.16097 0,-0.0707 0,-0.14148 -1e-5,-0.21222 -4e-5,-0.0736 -8e-5,-0.1472 -2.7e-4,-0.22079 -2.6e-4,-0.0754 -0.001,-0.15084 -5.3e-4,-0.22625 0.002,-0.12784 0.006,-0.25589 0.0263,-0.38241 0.0319,-0.18511 0.0831,-0.36523 0.12776,-0.5475 0.0612,-0.21779 0.12428,-0.43524 0.165,-0.65812 0.0496,-0.30218 0.0945,-0.6051 0.1502,-0.90629 0.0315,-0.22726 0.0468,-0.45349 0.0389,-0.68325 0.004,-0.24663 0.0113,-0.49319 0.029,-0.73926 0.0188,-0.27708 0.0303,-0.55371 0.0246,-0.83158 0.005,-0.31532 0.012,-0.63212 0.0693,-0.94318 0.0568,-0.24226 0.1488,-0.46878 0.23295,-0.70217 0.0591,-0.18972 0.10046,-0.38465 0.1677,-0.572007 0.0732,-0.218749 0.13255,-0.442515 0.20068,-0.662831 0.0748,-0.251278 0.10844,-0.513937 0.19026,-0.763693 0.0699,-0.258176 0.14212,-0.515337 0.1985,-0.776955 0.093,-0.380645 0.19175,-0.760955 0.35897,-1.117224 0.10746,-0.215201 0.1197,-0.254082 0.25024,-0.457515 0.17156,-0.267351 0.37426,-0.513596 0.55578,-0.77394 0.25731,-0.359021 0.52492,-0.712317 0.86249,-1.001364 0.31923,-0.264784 0.64282,-0.524137 0.97474,-0.772935 0.28701,-0.221049 0.5838,-0.427553 0.87621,-0.641191 0.29256,-0.230534 0.58995,-0.461164 0.92714,-0.623538 0.41723,-0.204439 0.84851,-0.378341 1.29323,-0.514086 0.21453,-0.06088 0.32845,-0.09657 0.54849,-0.144976 0.34857,-0.07668 0.70329,-0.122576 1.05404,-0.187414 0.56059,-0.103193 1.12389,-0.198351 1.69454,-0.222034 0.42631,-0.01712 0.8525,-0.02156 1.27914,-0.01762 0.33141,0 0.66281,3e-6 0.99422,-2.9e-5 0.32179,-4e-5 0.64358,-1.03e-4 0.96537,-2.64e-4 0.27194,-1.33e-4 0.54389,-5.3e-4 0.81583,7.93e-4 0.27834,0.0021 0.55674,0.0057 0.8347,0.02167 0.27389,0.01704 0.54721,0.04273 0.82192,0.04199 0.29652,0.01336 0.5936,0.03315 0.88452,0.09573 0.34644,0.06574 0.68279,0.167119 1.00806,0.304271 0.279699,0.112276 0.562189,0.218922 0.835369,0.34626 0.29049,0.139287 0.58025,0.281578 0.86112,0.439227 0.23559,0.144833 0.46418,0.298627 0.67188,0.482251 0.21366,0.180832 0.41628,0.378267 0.54617,0.630137 0.10957,0.208364 0.20155,0.427373 0.22261,0.664525 0.016,0.21309 0.006,0.426865 0.009,0.640445 0,0.278471 0,0.55694 0,0.835408 0,0.362734 0,0.725467 0,1.0882 0,0.372589 0,0.74518 0,1.117769 0,0.707107 -1,0.707107 -1,0 z" />
  </g>
</svg>
