<?xml version="1.0" encoding="UTF-8" standalone="no"?>
<!-- Created with Inkscape (http://www.inkscape.org/) -->

<svg
   width="210mm"
   height="297mm"
   viewBox="0 0 210 297"
   version="1.1"
   id="svg5"
   inkscape:version="1.2.2 (b0a8486541, 2022-12-01)"
   sodipodi:docname="deembedding.svg"
   xml:space="preserve"
   xmlns:inkscape="http://www.inkscape.org/namespaces/inkscape"
   xmlns:sodipodi="http://sodipodi.sourceforge.net/DTD/sodipodi-0.dtd"
   xmlns:xlink="http://www.w3.org/1999/xlink"
   xmlns="http://www.w3.org/2000/svg"
   xmlns:svg="http://www.w3.org/2000/svg"><sodipodi:namedview
     id="namedview7"
     pagecolor="#ffffff"
     bordercolor="#000000"
     borderopacity="0.25"
     inkscape:showpageshadow="2"
     inkscape:pageopacity="0.0"
     inkscape:pagecheckerboard="0"
     inkscape:deskcolor="#d1d1d1"
     inkscape:document-units="mm"
     showgrid="false"
     inkscape:zoom="2.2691573"
     inkscape:cx="163.27648"
     inkscape:cy="428.13251"
     inkscape:window-width="2560"
     inkscape:window-height="1371"
     inkscape:window-x="0"
     inkscape:window-y="32"
     inkscape:window-maximized="1"
     inkscape:current-layer="layer1" /><defs
     id="defs2"><linearGradient
       id="linearGradient1784"
       inkscape:swatch="solid"><stop
         style="stop-color:#000000;stop-opacity:1;"
         offset="0"
         id="stop1782" /></linearGradient><inkscape:path-effect
       effect="powerstroke"
       id="path-effect1585"
       is_visible="true"
       lpeversion="1"
       offset_points="1.2898535,1.0917832"
       not_jump="true"
       sort_points="true"
       interpolator_type="CentripetalCatmullRom"
       interpolator_beta="0.75"
       start_linecap_type="round"
       linejoin_type="spiro"
       miter_limit="4"
       scale_width="1"
       end_linecap_type="round" /><inkscape:path-effect
       effect="simplify"
       id="path-effect1583"
       is_visible="true"
       lpeversion="1"
       steps="1"
       threshold="0.0047745358"
       smooth_angles="0"
       helper_size="0"
       simplify_individual_paths="false"
       simplify_just_coalesce="false"
       step="1" /><linearGradient
       id="linearGradient1131"
       inkscape:swatch="solid"><stop
         style="stop-color:#000000;stop-opacity:1;"
         offset="0"
         id="stop1129" /></linearGradient><linearGradient
       id="linearGradient1125"
       inkscape:swatch="solid"><stop
         style="stop-color:#ffffff;stop-opacity:1;"
         offset="0"
         id="stop1123" /></linearGradient><linearGradient
       id="linearGradient1119"
       inkscape:swatch="solid"><stop
         style="stop-color:#ffffff;stop-opacity:1;"
         offset="0"
         id="stop1117" /></linearGradient><path
       id="g0-67"
       d="M6.344209-5.395766C6.352179-5.427646 6.36812-5.475467 6.36812-5.515318C6.36812-5.571108 6.320299-5.610959 6.264508-5.610959S6.184807-5.587049 6.121046-5.515318L5.563138-4.901619C5.491407-5.00523 5.068991-5.610959 4.136488-5.610959C2.287422-5.610959 .422416-3.897385 .422416-2.064259C.422416-.67746 1.474471 .167372 2.741719 .167372C3.785803 .167372 4.670486-.470237 5.100872-1.091905C5.363885-1.482441 5.467497-1.865006 5.467497-1.912827C5.467497-1.984558 5.419676-2.016438 5.347945-2.016438C5.252304-2.016438 5.236364-1.976588 5.212453-1.888917C4.877709-.789041 3.801743-.095641 2.84533-.095641C2.032379-.095641 1.179577-.573848 1.179577-1.793275C1.179577-2.048319 1.267248-3.379328 2.15193-4.375592C2.749689-5.045081 3.56264-5.347945 4.192279-5.347945C5.196513-5.347945 5.610959-4.542964 5.610959-3.785803C5.610959-3.674222 5.579078-3.52279 5.579078-3.427148C5.579078-3.323537 5.68269-3.323537 5.71457-3.323537C5.818182-3.323537 5.834122-3.355417 5.866002-3.498879L6.344209-5.395766Z" /><path
       id="g0-79"
       d="M6.224658-3.427148C6.224658-4.734247 5.316065-5.610959 4.040847-5.610959C2.183811-5.610959 .406476-3.769863 .406476-1.992528C.406476-.765131 1.267248 .167372 2.606227 .167372C4.391532 .167372 6.224658-1.546202 6.224658-3.427148ZM2.669988-.095641C1.857036-.095641 1.195517-.67746 1.195517-1.817186C1.195517-1.944707 1.195517-3.275716 2.11208-4.407472C2.406974-4.766127 3.124284-5.363885 3.985056-5.363885C4.782067-5.363885 5.483437-4.813948 5.483437-3.706102C5.483437-3.267746 5.316065-2.024408 4.495143-1.052055C4.032877-.502117 3.347447-.095641 2.669988-.095641Z" /><path
       id="g1-0"
       d="M6.503611-8.141469H.490162V-7.79477H.729265C1.590037-7.79477 1.625903-7.675218 1.625903-7.232877V-.908593C1.625903-.466252 1.590037-.3467 .729265-.3467H.490162V0C.777086-.02391 1.841096-.02391 2.199751-.02391C2.618182-.02391 3.670237-.02391 4.016936 0V-.3467H3.658281C2.618182-.3467 2.594271-.490162 2.594271-.920548V-7.316563C2.594271-7.711083 2.618182-7.79477 3.144209-7.79477H4.423412C6.073225-7.79477 6.38406-7.149191 6.551432-5.475467H6.814446L6.503611-8.141469Z" /><path
       id="g0-67-8"
       d="M6.344209-5.395766C6.352179-5.427646 6.36812-5.475467 6.36812-5.515318C6.36812-5.571108 6.320299-5.610959 6.264508-5.610959S6.184807-5.587049 6.121046-5.515318L5.563138-4.901619C5.491407-5.00523 5.068991-5.610959 4.136488-5.610959C2.287422-5.610959 .422416-3.897385 .422416-2.064259C.422416-.67746 1.474471 .167372 2.741719 .167372C3.785803 .167372 4.670486-.470237 5.100872-1.091905C5.363885-1.482441 5.467497-1.865006 5.467497-1.912827C5.467497-1.984558 5.419676-2.016438 5.347945-2.016438C5.252304-2.016438 5.236364-1.976588 5.212453-1.888917C4.877709-.789041 3.801743-.095641 2.84533-.095641C2.032379-.095641 1.179577-.573848 1.179577-1.793275C1.179577-2.048319 1.267248-3.379328 2.15193-4.375592C2.749689-5.045081 3.56264-5.347945 4.192279-5.347945C5.196513-5.347945 5.610959-4.542964 5.610959-3.785803C5.610959-3.674222 5.579078-3.52279 5.579078-3.427148C5.579078-3.323537 5.68269-3.323537 5.71457-3.323537C5.818182-3.323537 5.834122-3.355417 5.866002-3.498879L6.344209-5.395766Z" /><path
       id="g0-83"
       d="M5.347945-5.395766C5.355915-5.427646 5.371856-5.475467 5.371856-5.515318C5.371856-5.571108 5.324035-5.610959 5.268244-5.610959S5.196513-5.595019 5.108842-5.499377C5.021171-5.395766 4.813948-5.140722 4.726276-5.045081C4.415442-5.499377 3.913325-5.610959 3.506849-5.610959C2.399004-5.610959 1.45056-4.678456 1.45056-3.769863C1.45056-3.307597 1.697634-3.036613 1.737484-2.980822C2.000498-2.701868 2.231631-2.638107 2.805479-2.502615C3.084433-2.430884 3.100374-2.430884 3.331507-2.375093S4.072727-2.191781 4.072727-1.530262C4.072727-.836862 3.387298-.095641 2.550436-.095641C2.032379-.095641 1.083935-.255044 1.083935-1.243337C1.083935-1.267248 1.083935-1.43462 1.131756-1.625903L1.139726-1.705604C1.139726-1.801245 1.052055-1.809215 1.020174-1.809215C.916563-1.809215 .908593-1.777335 .868742-1.594022L.541968-.294894C.510087-.175342 .454296 .039851 .454296 .063761C.454296 .127522 .502117 .167372 .557908 .167372S.621669 .159402 .70934 .055791L1.091905-.390535C1.275218-.151432 1.729514 .167372 2.534496 .167372C3.690162 .167372 4.638605-.876712 4.638605-1.833126C4.638605-2.199751 4.519054-2.486675 4.303861-2.709838C4.064757-2.972852 3.801743-3.036613 3.427148-3.132254C3.196015-3.188045 2.885181-3.259776 2.701868-3.307597C2.462765-3.363387 2.016438-3.52279 2.016438-4.080697C2.016438-4.702366 2.685928-5.371856 3.498879-5.371856C4.216189-5.371856 4.710336-4.99726 4.710336-4.136488C4.710336-3.945205 4.678456-3.777833 4.678456-3.745953C4.678456-3.650311 4.750187-3.634371 4.805978-3.634371C4.901619-3.634371 4.909589-3.666252 4.941469-3.793773L5.347945-5.395766Z" /><path
       id="g1-0-7"
       d="M6.503611-8.141469H.490162V-7.79477H.729265C1.590037-7.79477 1.625903-7.675218 1.625903-7.232877V-.908593C1.625903-.466252 1.590037-.3467 .729265-.3467H.490162V0C.777086-.02391 1.841096-.02391 2.199751-.02391C2.618182-.02391 3.670237-.02391 4.016936 0V-.3467H3.658281C2.618182-.3467 2.594271-.490162 2.594271-.920548V-7.316563C2.594271-7.711083 2.618182-7.79477 3.144209-7.79477H4.423412C6.073225-7.79477 6.38406-7.149191 6.551432-5.475467H6.814446L6.503611-8.141469Z" /><path
       id="g0-109"
       d="M1.594022-1.307098C1.617933-1.42665 1.697634-1.729514 1.721544-1.849066C1.745455-1.928767 1.793275-2.12005 1.809215-2.199751C1.825156-2.239601 2.088169-2.757659 2.438854-3.020672C2.709838-3.227895 2.972852-3.291656 3.196015-3.291656C3.490909-3.291656 3.650311-3.116314 3.650311-2.749689C3.650311-2.558406 3.602491-2.375093 3.514819-2.016438C3.459029-1.809215 3.323537-1.275218 3.275716-1.060025L3.156164-.581818C3.116314-.446326 3.060523-.207223 3.060523-.167372C3.060523 .01594 3.211955 .079701 3.315567 .079701C3.459029 .079701 3.57858-.01594 3.634371-.111582C3.658281-.159402 3.722042-.430386 3.761893-.597758L3.945205-1.307098C3.969116-1.42665 4.048817-1.729514 4.072727-1.849066C4.184309-2.279452 4.184309-2.287422 4.367621-2.550436C4.630635-2.940971 5.00523-3.291656 5.539228-3.291656C5.826152-3.291656 5.993524-3.124284 5.993524-2.749689C5.993524-2.311333 5.65878-1.39477 5.507347-1.012204C5.427646-.804981 5.403736-.749191 5.403736-.597758C5.403736-.143462 5.778331 .079701 6.121046 .079701C6.902117 .079701 7.228892-1.036115 7.228892-1.139726C7.228892-1.219427 7.165131-1.243337 7.10934-1.243337C7.013699-1.243337 6.997758-1.187547 6.973848-1.107846C6.782565-.446326 6.447821-.143462 6.144956-.143462C6.017435-.143462 5.953674-.223163 5.953674-.406476S6.017435-.765131 6.097136-.964384C6.216687-1.267248 6.567372-2.183811 6.567372-2.630137C6.567372-3.227895 6.152927-3.514819 5.579078-3.514819C5.029141-3.514819 4.574844-3.227895 4.216189-2.733748C4.152428-3.371357 3.642341-3.514819 3.227895-3.514819C2.86127-3.514819 2.375093-3.387298 1.936737-2.81345C1.880946-3.291656 1.498381-3.514819 1.123786-3.514819C.844832-3.514819 .645579-3.347447 .510087-3.076463C.318804-2.701868 .239103-2.311333 .239103-2.295392C.239103-2.223661 .294894-2.191781 .358655-2.191781C.462267-2.191781 .470237-2.223661 .526027-2.430884C.621669-2.82142 .765131-3.291656 1.099875-3.291656C1.307098-3.291656 1.354919-3.092403 1.354919-2.917061C1.354919-2.773599 1.315068-2.622167 1.251308-2.359153C1.235367-2.295392 1.115816-1.825156 1.083935-1.713574L.789041-.518057C.757161-.398506 .70934-.199253 .70934-.167372C.70934 .01594 .860772 .079701 .964384 .079701C1.107846 .079701 1.227397-.01594 1.283188-.111582C1.307098-.159402 1.370859-.430386 1.41071-.597758L1.594022-1.307098Z" /><path
       id="g1-0-9"
       d="M6.503611-8.141469H.490162V-7.79477H.729265C1.590037-7.79477 1.625903-7.675218 1.625903-7.232877V-.908593C1.625903-.466252 1.590037-.3467 .729265-.3467H.490162V0C.777086-.02391 1.841096-.02391 2.199751-.02391C2.618182-.02391 3.670237-.02391 4.016936 0V-.3467H3.658281C2.618182-.3467 2.594271-.490162 2.594271-.920548V-7.316563C2.594271-7.711083 2.618182-7.79477 3.144209-7.79477H4.423412C6.073225-7.79477 6.38406-7.149191 6.551432-5.475467H6.814446L6.503611-8.141469Z" /><path
       id="g0-45"
       d="M2.343213-1.458531V-1.976588H.095641V-1.458531H2.343213Z" /><path
       id="g0-98"
       d="M1.466501-5.531258L.278954-5.443587V-5.180573C.820922-5.180573 .884682-5.124782 .884682-4.734247V0H1.131756L1.41868-.494147C1.609963-.223163 1.984558 .079701 2.526526 .079701C3.53873 .079701 4.415442-.70137 4.415442-1.721544C4.415442-2.725778 3.594521-3.514819 2.622167-3.514819C1.992528-3.514819 1.601993-3.172105 1.466501-3.028643V-5.531258ZM1.490411-2.518555C1.490411-2.669988 1.490411-2.685928 1.609963-2.82939C1.841096-3.124284 2.215691-3.291656 2.574346-3.291656C2.988792-3.291656 3.299626-3.044583 3.459029-2.805479C3.594521-2.590286 3.706102-2.311333 3.706102-1.729514C3.706102-1.546202 3.706102-.980324 3.419178-.605729C3.132254-.247073 2.757659-.143462 2.494645-.143462C2.11208-.143462 1.793275-.342715 1.586052-.653549C1.490411-.804981 1.490411-.812951 1.490411-.964384V-2.518555Z" /><path
       id="g0-100"
       d="M2.622167-5.443587V-5.180573C3.164134-5.180573 3.227895-5.124782 3.227895-4.734247V-3.052553C2.948941-3.355417 2.574346-3.514819 2.1599-3.514819C1.163636-3.514819 .278954-2.741719 .278954-1.713574C.278954-.73325 1.075965 .079701 2.080199 .079701C2.550436 .079701 2.940971-.143462 3.203985-.422416V.079701L4.415442 0V-.263014C3.873474-.263014 3.809714-.318804 3.809714-.70934V-5.531258L2.622167-5.443587ZM3.203985-.988294C3.203985-.844832 3.203985-.812951 3.084433-.653549C2.86127-.334745 2.494645-.143462 2.12005-.143462C1.753425-.143462 1.43462-.334745 1.243337-.629639C1.028144-.940473 .988294-1.331009 .988294-1.705604C.988294-2.16787 1.060025-2.494645 1.243337-2.773599C1.43462-3.068493 1.793275-3.291656 2.199751-3.291656C2.582316-3.291656 2.964882-3.100374 3.203985-2.685928V-.988294Z" /><path
       id="g0-101"
       d="M3.291656-1.817186C3.466999-1.817186 3.514819-1.817186 3.514819-2.000498C3.514819-2.709838 3.124284-3.55467 2.000498-3.55467C1.012204-3.55467 .239103-2.733748 .239103-1.745455C.239103-.71731 1.099875 .079701 2.10411 .079701C3.116314 .079701 3.514819-.773101 3.514819-.956413C3.514819-.988294 3.490909-1.067995 3.387298-1.067995C3.299626-1.067995 3.283686-1.012204 3.267746-.964384C2.980822-.191283 2.295392-.167372 2.15193-.167372C1.793275-.167372 1.42665-.334745 1.187547-.70137S.948443-1.578082 .948443-1.817186H3.291656ZM.956413-2.024408C1.028144-3.140224 1.705604-3.331507 2.000498-3.331507C2.933001-3.331507 2.964882-2.207721 2.972852-2.024408H.956413Z" /><path
       id="g0-109-7"
       d="M6.224658-2.414944C6.224658-3.060523 5.945704-3.514819 5.076961-3.514819C4.343711-3.514819 3.977086-3.012702 3.849564-2.781569C3.706102-3.355417 3.251806-3.514819 2.733748-3.514819C1.960648-3.514819 1.594022-2.964882 1.490411-2.749689H1.482441V-3.514819L.326775-3.427148V-3.164134C.868742-3.164134 .932503-3.108344 .932503-2.717808V-.621669C.932503-.263014 .836862-.263014 .326775-.263014V0C.669489-.02391 1.020174-.02391 1.235367-.02391C1.466501-.02391 1.801245-.02391 2.14396 0V-.263014C1.633873-.263014 1.538232-.263014 1.538232-.621669V-2.064259C1.538232-2.901121 2.16787-3.291656 2.669988-3.291656C3.188045-3.291656 3.275716-2.885181 3.275716-2.446824V-.621669C3.275716-.263014 3.180075-.263014 2.669988-.263014V0C3.012702-.02391 3.363387-.02391 3.57858-.02391C3.809714-.02391 4.144458-.02391 4.487173 0V-.263014C3.977086-.263014 3.881445-.263014 3.881445-.621669V-2.064259C3.881445-2.901121 4.511083-3.291656 5.0132-3.291656C5.531258-3.291656 5.618929-2.885181 5.618929-2.446824V-.621669C5.618929-.263014 5.523288-.263014 5.0132-.263014V0C5.355915-.02391 5.7066-.02391 5.921793-.02391C6.152927-.02391 6.487671-.02391 6.830386 0V-.263014C6.320299-.263014 6.224658-.263014 6.224658-.621669V-2.414944Z" /><path
       id="g1-0-8"
       d="M6.503611-8.141469H.490162V-7.79477H.729265C1.590037-7.79477 1.625903-7.675218 1.625903-7.232877V-.908593C1.625903-.466252 1.590037-.3467 .729265-.3467H.490162V0C.777086-.02391 1.841096-.02391 2.199751-.02391C2.618182-.02391 3.670237-.02391 4.016936 0V-.3467H3.658281C2.618182-.3467 2.594271-.490162 2.594271-.920548V-7.316563C2.594271-7.711083 2.618182-7.79477 3.144209-7.79477H4.423412C6.073225-7.79477 6.38406-7.149191 6.551432-5.475467H6.814446L6.503611-8.141469Z" /><path
       id="g0-80"
       d="M2.606227-3.801743H4.62665C6.025405-3.801743 7.304608-4.746202 7.304608-5.953674C7.304608-7.113325 6.144956-8.16538 4.531009-8.16538H.502117V-7.81868H.74122C1.601993-7.81868 1.637858-7.699128 1.637858-7.256787V-.908593C1.637858-.466252 1.601993-.3467 .74122-.3467H.502117V0C.789041-.02391 1.769365-.02391 2.116065-.02391C2.47472-.02391 3.455044-.02391 3.741968 0V-.3467H3.502864C2.642092-.3467 2.606227-.466252 2.606227-.908593V-3.801743ZM2.582316-4.088667V-7.340473C2.582316-7.734994 2.606227-7.81868 3.132254-7.81868H4.25604C6.192777-7.81868 6.192777-6.467746 6.192777-5.953674C6.192777-5.451557 6.192777-4.088667 4.244085-4.088667H2.582316Z" /><path
       id="g0-97"
       d="M4.614695-3.19203C4.614695-3.837609 4.614695-4.315816 4.088667-4.782067C3.670237-5.164633 3.132254-5.332005 2.606227-5.332005C1.625903-5.332005 .872727-4.686426 .872727-3.90934C.872727-3.56264 1.099875-3.395268 1.374844-3.395268C1.661768-3.395268 1.865006-3.598506 1.865006-3.88543C1.865006-4.375592 1.43462-4.375592 1.255293-4.375592C1.530262-4.877709 2.10411-5.092902 2.582316-5.092902C3.132254-5.092902 3.837609-4.638605 3.837609-3.56264V-3.084433C1.43462-3.048568 .526027-2.044334 .526027-1.123786C.526027-.179328 1.625903 .119552 2.355168 .119552C3.144209 .119552 3.682192-.358655 3.90934-.932503C3.957161-.37061 4.327771 .059776 4.841843 .059776C5.092902 .059776 5.786301-.107597 5.786301-1.06401V-1.733499H5.523288V-1.06401C5.523288-.382565 5.236364-.286924 5.068991-.286924C4.614695-.286924 4.614695-.920548 4.614695-1.099875V-3.19203ZM3.837609-1.685679C3.837609-.514072 2.964882-.119552 2.450809-.119552C1.865006-.119552 1.374844-.549938 1.374844-1.123786C1.374844-2.701868 3.407223-2.84533 3.837609-2.86924V-1.685679Z" /><path
       id="g0-98-0"
       d="M1.996513-8.296887L.334745-8.16538V-7.81868C1.147696-7.81868 1.243337-7.734994 1.243337-7.149191V0H1.506351C1.554172-.095641 1.888917-.6934 1.936737-.777086C2.211706-.334745 2.725778 .119552 3.490909 .119552C4.865753 .119552 6.073225-1.0401 6.073225-2.582316C6.073225-4.100623 4.94944-5.272229 3.622416-5.272229C2.964882-5.272229 2.402989-4.97335 1.996513-4.471233V-8.296887ZM2.020423-3.825654C2.020423-4.040847 2.020423-4.064757 2.15193-4.25604C2.438854-4.686426 2.964882-5.033126 3.550685-5.033126C3.90934-5.033126 5.164633-4.889664 5.164633-2.594271C5.164633-1.793275 5.045081-1.291158 4.758157-.860772C4.519054-.490162 4.040847-.119552 3.443088-.119552C2.797509-.119552 2.379078-.537983 2.175841-.860772C2.020423-1.111831 2.020423-1.159651 2.020423-1.362889V-3.825654Z" /><path
       id="g0-99"
       d="M4.327771-4.423412C4.184309-4.423412 3.741968-4.423412 3.741968-3.93325C3.741968-3.646326 3.945205-3.443088 4.23213-3.443088C4.507098-3.443088 4.734247-3.610461 4.734247-3.957161C4.734247-4.758157 3.897385-5.332005 2.929016-5.332005C1.530262-5.332005 .418431-4.088667 .418431-2.582316C.418431-1.052055 1.566127 .119552 2.917061 .119552C4.495143 .119552 4.853798-1.315068 4.853798-1.422665S4.770112-1.530262 4.734247-1.530262C4.62665-1.530262 4.614695-1.494396 4.578829-1.350934C4.315816-.502117 3.670237-.143462 3.024658-.143462C2.295392-.143462 1.327024-.777086 1.327024-2.594271C1.327024-4.578829 2.343213-5.068991 2.940971-5.068991C3.395268-5.068991 4.052802-4.889664 4.327771-4.423412Z" /><path
       id="g0-101-3"
       d="M4.578829-2.773599C4.841843-2.773599 4.865753-2.773599 4.865753-3.000747C4.865753-4.208219 4.220174-5.332005 2.773599-5.332005C1.41071-5.332005 .358655-4.100623 .358655-2.618182C.358655-1.0401 1.578082 .119552 2.905106 .119552C4.327771 .119552 4.865753-1.171606 4.865753-1.422665C4.865753-1.494396 4.805978-1.542217 4.734247-1.542217C4.638605-1.542217 4.614695-1.482441 4.590785-1.422665C4.27995-.418431 3.478954-.143462 2.976837-.143462S1.267248-.478207 1.267248-2.546451V-2.773599H4.578829ZM1.279203-3.000747C1.374844-4.877709 2.426899-5.092902 2.761644-5.092902C4.040847-5.092902 4.112578-3.407223 4.124533-3.000747H1.279203Z" /><path
       id="g0-105"
       d="M2.080199-7.364384C2.080199-7.675218 1.829141-7.950187 1.494396-7.950187C1.183562-7.950187 .920548-7.699128 .920548-7.376339C.920548-7.017684 1.207472-6.790535 1.494396-6.790535C1.865006-6.790535 2.080199-7.10137 2.080199-7.364384ZM.430386-5.140722V-4.794022C1.195517-4.794022 1.303113-4.722291 1.303113-4.136488V-.884682C1.303113-.3467 1.171606-.3467 .394521-.3467V0C.729265-.02391 1.303113-.02391 1.649813-.02391C1.78132-.02391 2.47472-.02391 2.881196 0V-.3467C2.10411-.3467 2.056289-.406476 2.056289-.872727V-5.272229L.430386-5.140722Z" /><path
       id="g0-111"
       d="M5.487422-2.558406C5.487422-4.100623 4.315816-5.332005 2.929016-5.332005C1.494396-5.332005 .358655-4.064757 .358655-2.558406C.358655-1.028144 1.554172 .119552 2.917061 .119552C4.327771 .119552 5.487422-1.052055 5.487422-2.558406ZM2.929016-.143462C2.486675-.143462 1.948692-.334745 1.601993-.920548C1.279203-1.458531 1.267248-2.163885 1.267248-2.666002C1.267248-3.120299 1.267248-3.849564 1.637858-4.387547C1.972603-4.901619 2.49863-5.092902 2.917061-5.092902C3.383313-5.092902 3.88543-4.877709 4.208219-4.411457C4.578829-3.861519 4.578829-3.108344 4.578829-2.666002C4.578829-2.247572 4.578829-1.506351 4.267995-.944458C3.93325-.37061 3.383313-.143462 2.929016-.143462Z" /><path
       id="g0-114"
       d="M1.996513-2.785554C1.996513-3.945205 2.47472-5.033126 3.395268-5.033126C3.490909-5.033126 3.514819-5.033126 3.56264-5.021171C3.466999-4.97335 3.275716-4.901619 3.275716-4.578829C3.275716-4.23213 3.550685-4.100623 3.741968-4.100623C3.981071-4.100623 4.220174-4.25604 4.220174-4.578829C4.220174-4.937484 3.897385-5.272229 3.383313-5.272229C2.367123-5.272229 2.020423-4.172354 1.948692-3.945205H1.936737V-5.272229L.334745-5.140722V-4.794022C1.147696-4.794022 1.243337-4.710336 1.243337-4.124533V-.884682C1.243337-.3467 1.111831-.3467 .334745-.3467V0C.669489-.02391 1.327024-.02391 1.685679-.02391C2.008468-.02391 2.857285-.02391 3.132254 0V-.3467H2.893151C2.020423-.3467 1.996513-.478207 1.996513-.908593V-2.785554Z" /><path
       id="g0-115"
       d="M3.921295-5.057036C3.921295-5.272229 3.921295-5.332005 3.801743-5.332005C3.706102-5.332005 3.478954-5.068991 3.395268-4.961395C3.024658-5.260274 2.654047-5.332005 2.271482-5.332005C.824907-5.332005 .394521-4.542964 .394521-3.88543C.394521-3.753923 .394521-3.335492 .848817-2.917061C1.231382-2.582316 1.637858-2.49863 2.187796-2.391034C2.84533-2.259527 3.000747-2.223661 3.299626-1.984558C3.514819-1.80523 3.670237-1.542217 3.670237-1.207472C3.670237-.6934 3.371357-.119552 2.319303-.119552C1.530262-.119552 .956413-.573848 .6934-1.769365C.645579-1.984558 .645579-1.996513 .633624-2.008468C.609714-2.056289 .561893-2.056289 .526027-2.056289C.394521-2.056289 .394521-1.996513 .394521-1.78132V-.155417C.394521 .059776 .394521 .119552 .514072 .119552C.573848 .119552 .585803 .107597 .789041-.143462C.848817-.227148 .848817-.251059 1.028144-.442341C1.482441 .119552 2.12802 .119552 2.331258 .119552C3.58655 .119552 4.208219-.573848 4.208219-1.518306C4.208219-2.163885 3.813699-2.546451 3.706102-2.654047C3.275716-3.024658 2.952927-3.096389 2.163885-3.239851C1.80523-3.311582 .932503-3.478954 .932503-4.196264C.932503-4.566874 1.183562-5.116812 2.259527-5.116812C3.56264-5.116812 3.634371-4.004981 3.658281-3.634371C3.670237-3.53873 3.753923-3.53873 3.789788-3.53873C3.921295-3.53873 3.921295-3.598506 3.921295-3.813699V-5.057036Z" /><path
       id="g0-116"
       d="M2.008468-4.805978H3.694147V-5.152677H2.008468V-7.352428H1.745455C1.733499-6.228643 1.303113-5.080946 .215193-5.045081V-4.805978H1.231382V-1.482441C1.231382-.155417 2.116065 .119552 2.749689 .119552C3.502864 .119552 3.897385-.621669 3.897385-1.482441V-2.163885H3.634371V-1.506351C3.634371-.645579 3.287671-.143462 2.82142-.143462C2.008468-.143462 2.008468-1.255293 2.008468-1.458531V-4.805978Z" /><path
       id="g0-45-1"
       d="M3.239851-2.259527V-2.905106H.131507V-2.259527H3.239851Z" /><path
       id="g0-98-06"
       d="M1.996513-8.296887L.334745-8.16538V-7.81868C1.147696-7.81868 1.243337-7.734994 1.243337-7.149191V0H1.506351C1.554172-.095641 1.888917-.6934 1.936737-.777086C2.211706-.334745 2.725778 .119552 3.490909 .119552C4.865753 .119552 6.073225-1.0401 6.073225-2.582316C6.073225-4.100623 4.94944-5.272229 3.622416-5.272229C2.964882-5.272229 2.402989-4.97335 1.996513-4.471233V-8.296887ZM2.020423-3.825654C2.020423-4.040847 2.020423-4.064757 2.15193-4.25604C2.438854-4.686426 2.964882-5.033126 3.550685-5.033126C3.90934-5.033126 5.164633-4.889664 5.164633-2.594271C5.164633-1.793275 5.045081-1.291158 4.758157-.860772C4.519054-.490162 4.040847-.119552 3.443088-.119552C2.797509-.119552 2.379078-.537983 2.175841-.860772C2.020423-1.111831 2.020423-1.159651 2.020423-1.362889V-3.825654Z" /><path
       id="g0-100-3"
       d="M3.58655-8.16538V-7.81868C4.399502-7.81868 4.495143-7.734994 4.495143-7.149191V-4.507098C4.244085-4.853798 3.730012-5.272229 3.000747-5.272229C1.613948-5.272229 .418431-4.100623 .418431-2.570361C.418431-1.052055 1.554172 .119552 2.86924 .119552C3.777833 .119552 4.303861-.478207 4.471233-.705355V.119552L6.156912 0V-.3467C5.34396-.3467 5.248319-.430386 5.248319-1.016189V-8.296887L3.58655-8.16538ZM4.471233-1.398755C4.471233-1.183562 4.471233-1.147696 4.303861-.884682C4.016936-.466252 3.526775-.119552 2.929016-.119552C2.618182-.119552 1.327024-.239103 1.327024-2.558406C1.327024-3.419178 1.470486-3.897385 1.733499-4.291905C1.972603-4.662516 2.450809-5.033126 3.048568-5.033126C3.789788-5.033126 4.208219-4.495143 4.327771-4.303861C4.471233-4.100623 4.471233-4.076712 4.471233-3.861519V-1.398755Z" /><path
       id="g0-101-2"
       d="M4.578829-2.773599C4.841843-2.773599 4.865753-2.773599 4.865753-3.000747C4.865753-4.208219 4.220174-5.332005 2.773599-5.332005C1.41071-5.332005 .358655-4.100623 .358655-2.618182C.358655-1.0401 1.578082 .119552 2.905106 .119552C4.327771 .119552 4.865753-1.171606 4.865753-1.422665C4.865753-1.494396 4.805978-1.542217 4.734247-1.542217C4.638605-1.542217 4.614695-1.482441 4.590785-1.422665C4.27995-.418431 3.478954-.143462 2.976837-.143462S1.267248-.478207 1.267248-2.546451V-2.773599H4.578829ZM1.279203-3.000747C1.374844-4.877709 2.426899-5.092902 2.761644-5.092902C4.040847-5.092902 4.112578-3.407223 4.124533-3.000747H1.279203Z" /><path
       id="g0-109-0"
       d="M8.571856-2.905106C8.571856-4.016936 8.571856-4.351681 8.296887-4.734247C7.950187-5.200498 7.388294-5.272229 6.981818-5.272229C5.989539-5.272229 5.487422-4.554919 5.296139-4.088667C5.128767-5.009215 4.483188-5.272229 3.730012-5.272229C2.570361-5.272229 2.116065-4.27995 2.020423-4.040847H2.008468V-5.272229L.382565-5.140722V-4.794022C1.195517-4.794022 1.291158-4.710336 1.291158-4.124533V-.884682C1.291158-.3467 1.159651-.3467 .382565-.3467V0C.6934-.02391 1.338979-.02391 1.673724-.02391C2.020423-.02391 2.666002-.02391 2.976837 0V-.3467C2.211706-.3467 2.068244-.3467 2.068244-.884682V-3.108344C2.068244-4.363636 2.893151-5.033126 3.634371-5.033126S4.542964-4.423412 4.542964-3.694147V-.884682C4.542964-.3467 4.411457-.3467 3.634371-.3467V0C3.945205-.02391 4.590785-.02391 4.925529-.02391C5.272229-.02391 5.917808-.02391 6.228643 0V-.3467C5.463512-.3467 5.32005-.3467 5.32005-.884682V-3.108344C5.32005-4.363636 6.144956-5.033126 6.886177-5.033126S7.79477-4.423412 7.79477-3.694147V-.884682C7.79477-.3467 7.663263-.3467 6.886177-.3467V0C7.197011-.02391 7.84259-.02391 8.177335-.02391C8.524035-.02391 9.169614-.02391 9.480448 0V-.3467C8.88269-.3467 8.583811-.3467 8.571856-.705355V-2.905106Z" /><path
       id="g0-41"
       d="M3.371357-2.976837C3.371357-3.88543 3.251806-5.36787 2.582316-6.75467C1.876961-8.18929 .896638-8.966376 .765131-8.966376C.71731-8.966376 .657534-8.942466 .657534-8.870735C.657534-8.834869 .657534-8.810959 .860772-8.607721C2.056289-7.400249 2.725778-5.427646 2.725778-2.988792C2.725778-.669489 2.163885 1.327024 .777086 2.737733C.657534 2.84533 .657534 2.86924 .657534 2.905106C.657534 2.976837 .71731 3.000747 .765131 3.000747C.920548 3.000747 1.900872 2.139975 2.486675 .968369C3.096389-.251059 3.371357-1.542217 3.371357-2.976837Z" /><path
       id="g0-99-5"
       d="M4.327771-4.423412C4.184309-4.423412 3.741968-4.423412 3.741968-3.93325C3.741968-3.646326 3.945205-3.443088 4.23213-3.443088C4.507098-3.443088 4.734247-3.610461 4.734247-3.957161C4.734247-4.758157 3.897385-5.332005 2.929016-5.332005C1.530262-5.332005 .418431-4.088667 .418431-2.582316C.418431-1.052055 1.566127 .119552 2.917061 .119552C4.495143 .119552 4.853798-1.315068 4.853798-1.422665S4.770112-1.530262 4.734247-1.530262C4.62665-1.530262 4.614695-1.494396 4.578829-1.350934C4.315816-.502117 3.670237-.143462 3.024658-.143462C2.295392-.143462 1.327024-.777086 1.327024-2.594271C1.327024-4.578829 2.343213-5.068991 2.940971-5.068991C3.395268-5.068991 4.052802-4.889664 4.327771-4.423412Z" /><path
       id="g0-41-4"
       d="M3.371357-2.976837C3.371357-3.88543 3.251806-5.36787 2.582316-6.75467C1.876961-8.18929 .896638-8.966376 .765131-8.966376C.71731-8.966376 .657534-8.942466 .657534-8.870735C.657534-8.834869 .657534-8.810959 .860772-8.607721C2.056289-7.400249 2.725778-5.427646 2.725778-2.988792C2.725778-.669489 2.163885 1.327024 .777086 2.737733C.657534 2.84533 .657534 2.86924 .657534 2.905106C.657534 2.976837 .71731 3.000747 .765131 3.000747C.920548 3.000747 1.900872 2.139975 2.486675 .968369C3.096389-.251059 3.371357-1.542217 3.371357-2.976837Z" /><path
       id="g0-98-7"
       d="M1.996513-8.296887L.334745-8.16538V-7.81868C1.147696-7.81868 1.243337-7.734994 1.243337-7.149191V0H1.506351C1.554172-.095641 1.888917-.6934 1.936737-.777086C2.211706-.334745 2.725778 .119552 3.490909 .119552C4.865753 .119552 6.073225-1.0401 6.073225-2.582316C6.073225-4.100623 4.94944-5.272229 3.622416-5.272229C2.964882-5.272229 2.402989-4.97335 1.996513-4.471233V-8.296887ZM2.020423-3.825654C2.020423-4.040847 2.020423-4.064757 2.15193-4.25604C2.438854-4.686426 2.964882-5.033126 3.550685-5.033126C3.90934-5.033126 5.164633-4.889664 5.164633-2.594271C5.164633-1.793275 5.045081-1.291158 4.758157-.860772C4.519054-.490162 4.040847-.119552 3.443088-.119552C2.797509-.119552 2.379078-.537983 2.175841-.860772C2.020423-1.111831 2.020423-1.159651 2.020423-1.362889V-3.825654Z" /><path
       id="g0-41-6"
       d="M3.371357-2.976837C3.371357-3.88543 3.251806-5.36787 2.582316-6.75467C1.876961-8.18929 .896638-8.966376 .765131-8.966376C.71731-8.966376 .657534-8.942466 .657534-8.870735C.657534-8.834869 .657534-8.810959 .860772-8.607721C2.056289-7.400249 2.725778-5.427646 2.725778-2.988792C2.725778-.669489 2.163885 1.327024 .777086 2.737733C.657534 2.84533 .657534 2.86924 .657534 2.905106C.657534 2.976837 .71731 3.000747 .765131 3.000747C.920548 3.000747 1.900872 2.139975 2.486675 .968369C3.096389-.251059 3.371357-1.542217 3.371357-2.976837Z" /><path
       id="g0-97-9"
       d="M4.614695-3.19203C4.614695-3.837609 4.614695-4.315816 4.088667-4.782067C3.670237-5.164633 3.132254-5.332005 2.606227-5.332005C1.625903-5.332005 .872727-4.686426 .872727-3.90934C.872727-3.56264 1.099875-3.395268 1.374844-3.395268C1.661768-3.395268 1.865006-3.598506 1.865006-3.88543C1.865006-4.375592 1.43462-4.375592 1.255293-4.375592C1.530262-4.877709 2.10411-5.092902 2.582316-5.092902C3.132254-5.092902 3.837609-4.638605 3.837609-3.56264V-3.084433C1.43462-3.048568 .526027-2.044334 .526027-1.123786C.526027-.179328 1.625903 .119552 2.355168 .119552C3.144209 .119552 3.682192-.358655 3.90934-.932503C3.957161-.37061 4.327771 .059776 4.841843 .059776C5.092902 .059776 5.786301-.107597 5.786301-1.06401V-1.733499H5.523288V-1.06401C5.523288-.382565 5.236364-.286924 5.068991-.286924C4.614695-.286924 4.614695-.920548 4.614695-1.099875V-3.19203ZM3.837609-1.685679C3.837609-.514072 2.964882-.119552 2.450809-.119552C1.865006-.119552 1.374844-.549938 1.374844-1.123786C1.374844-2.701868 3.407223-2.84533 3.837609-2.86924V-1.685679Z" /></defs><g
     inkscape:label="Layer 1"
     inkscape:groupmode="layer"
     id="layer1"><rect
       style="fill:#ffffff;fill-opacity:1;stroke:#000000;stroke-width:0.264999;stroke-dasharray:none;stroke-opacity:1"
       id="rect1135"
       width="9.0921526"
       height="49.736511"
       x="22.150564"
       y="61.284725" /><rect
       style="fill:#ffffff;fill-opacity:1;stroke:#000000;stroke-width:0.264999;stroke-dasharray:none;stroke-opacity:1"
       id="rect1135-7"
       width="9.0921526"
       height="49.736511"
       x="40.519737"
       y="61.274097" /><rect
       style="fill:#ffffff;fill-opacity:1;stroke:#000000;stroke-width:0.265;stroke-dasharray:none;stroke-opacity:1"
       id="rect1135-6"
       width="5.335536"
       height="49.798382"
       x="33.302223"
       y="61.259117" /><rect
       style="fill:#ffffff;fill-opacity:1;stroke:#000000;stroke-width:0.264999;stroke-dasharray:none;stroke-opacity:1"
       id="rect1252"
       width="6.3064518"
       height="3.0167062"
       x="23.391811"
       y="62.520508" /><rect
       style="fill:#ffffff;fill-opacity:1;stroke:#000000;stroke-width:0.264999;stroke-dasharray:none;stroke-opacity:1"
       id="rect1252-5"
       width="6.3064518"
       height="3.0167062"
       x="41.962185"
       y="62.395546" /><rect
       style="fill:#ffffff;fill-opacity:1;stroke:#000000;stroke-width:0.264999;stroke-dasharray:none;stroke-opacity:1"
       id="rect1281"
       width="3.5427423"
       height="2.5740225"
       x="34.194309"
       y="62.687244" /><ellipse
       style="fill:#ffffff;fill-opacity:1;stroke:#000000;stroke-width:0.264999;stroke-dasharray:none;stroke-opacity:1"
       id="path1335"
       cx="26.610216"
       cy="64.062347"
       rx="0.89109206"
       ry="0.90082777" /><ellipse
       style="fill:#ffffff;fill-opacity:1;stroke:#000000;stroke-width:0.264999;stroke-dasharray:none;stroke-opacity:1"
       id="path1335-3"
       cx="36.00819"
       cy="63.967506"
       rx="0.89109206"
       ry="0.90082777" /><ellipse
       style="fill:#ffffff;fill-opacity:1;stroke:#000000;stroke-width:0.264999;stroke-dasharray:none;stroke-opacity:1"
       id="path1335-3-5"
       cx="45.223816"
       cy="63.896538"
       rx="0.89109206"
       ry="0.90082777" /><path
       style="fill:none;fill-rule:evenodd;stroke:#ff0000;stroke-width:0.265;stroke-linecap:butt;stroke-linejoin:miter;stroke-dasharray:0.795, 0.795;stroke-dashoffset:0;stroke-opacity:1"
       d="M 21.164705,63.994748 51.106866,63.857884"
       id="path2031"
       inkscape:connector-type="polyline"
       inkscape:connector-curvature="0" /><g
       id="page1"
       transform="matrix(0.19707089,0,0,0.18237239,7.4779895,49.723599)"><use
         x="222.58997"
         y="80.199249"
         xlink:href="#g1-0"
         id="use3257" /><use
         x="229.90414"
         y="81.992516"
         xlink:href="#g0-79"
         id="use3259" /><use
         x="236.5648"
         y="81.992516"
         xlink:href="#g0-67"
         id="use3261" /></g><rect
       style="fill:#ffffff;fill-opacity:1;stroke:#000000;stroke-width:0.264999;stroke-dasharray:none;stroke-opacity:1"
       id="rect1135-2"
       width="9.0921526"
       height="49.736511"
       x="46.65139"
       y="118.23645" /><rect
       style="fill:#ffffff;fill-opacity:1;stroke:#000000;stroke-width:0.264999;stroke-dasharray:none;stroke-opacity:1"
       id="rect1135-7-0"
       width="9.0921526"
       height="49.736511"
       x="65.020561"
       y="118.22581" /><rect
       style="fill:#ffffff;fill-opacity:1;stroke:#000000;stroke-width:0.265;stroke-dasharray:none;stroke-opacity:1"
       id="rect1135-6-2"
       width="5.335536"
       height="49.798382"
       x="57.803051"
       y="118.21085" /><rect
       style="fill:#ffffff;fill-opacity:1;stroke:#000000;stroke-width:0.264999;stroke-dasharray:none;stroke-opacity:1"
       id="rect1252-3"
       width="6.3064518"
       height="3.0167062"
       x="47.892639"
       y="119.47224" /><rect
       style="fill:#ffffff;fill-opacity:1;stroke:#000000;stroke-width:0.264999;stroke-dasharray:none;stroke-opacity:1"
       id="rect1252-5-75"
       width="6.3064518"
       height="3.0167062"
       x="66.463013"
       y="119.34727" /><rect
       style="fill:#ffffff;fill-opacity:1;stroke:#000000;stroke-width:0.264999;stroke-dasharray:none;stroke-opacity:1"
       id="rect1281-9"
       width="3.5427423"
       height="2.5740225"
       x="58.695137"
       y="119.63897" /><ellipse
       style="fill:#ffffff;fill-opacity:1;stroke:#000000;stroke-width:0.264999;stroke-dasharray:none;stroke-opacity:1"
       id="path1335-2"
       cx="51.111042"
       cy="121.01408"
       rx="0.89109206"
       ry="0.90082777" /><ellipse
       style="fill:#ffffff;fill-opacity:1;stroke:#000000;stroke-width:0.264999;stroke-dasharray:none;stroke-opacity:1"
       id="path1335-2-2"
       cx="51.313362"
       cy="166.10965"
       rx="0.89109206"
       ry="0.90082777" /><ellipse
       style="fill:#ffffff;fill-opacity:1;stroke:#000000;stroke-width:0.264999;stroke-dasharray:none;stroke-opacity:1"
       id="path1335-2-2-9"
       cx="60.603477"
       cy="166.05521"
       rx="0.89109206"
       ry="0.90082777" /><ellipse
       style="fill:#ffffff;fill-opacity:1;stroke:#000000;stroke-width:0.264999;stroke-dasharray:none;stroke-opacity:1"
       id="path1335-2-2-9-3"
       cx="69.390274"
       cy="166.13153"
       rx="0.89109206"
       ry="0.90082777" /><ellipse
       style="fill:#ffffff;fill-opacity:1;stroke:#000000;stroke-width:0.264999;stroke-dasharray:none;stroke-opacity:1"
       id="path1335-3-2"
       cx="60.509018"
       cy="120.91924"
       rx="0.89109206"
       ry="0.90082777" /><ellipse
       style="fill:#ffffff;fill-opacity:1;stroke:#000000;stroke-width:0.264999;stroke-dasharray:none;stroke-opacity:1"
       id="path1335-3-5-8"
       cx="69.72464"
       cy="120.84827"
       rx="0.89109206"
       ry="0.90082777" /><path
       style="fill:none;fill-rule:evenodd;stroke:#ff0000;stroke-width:0.265;stroke-linecap:butt;stroke-linejoin:miter;stroke-dasharray:0.795, 0.795;stroke-dashoffset:0;stroke-opacity:1"
       d="M 45.665533,120.94646 75.607694,120.8096"
       id="path2031-9"
       inkscape:connector-type="polyline"
       inkscape:connector-curvature="0" /><path
       style="fill:none;fill-rule:evenodd;stroke:#ff0000;stroke-width:0.265;stroke-linecap:butt;stroke-linejoin:miter;stroke-dasharray:0.795, 0.795;stroke-dashoffset:0;stroke-opacity:1"
       d="m 45.806943,166.17654 29.942161,-0.13686"
       id="path2031-9-1"
       inkscape:connector-type="polyline"
       inkscape:connector-curvature="0" /><rect
       style="fill:#ffffff;fill-opacity:1;stroke:#000000;stroke-width:0.264999;stroke-dasharray:none;stroke-opacity:1"
       id="rect1135-62"
       width="9.0921526"
       height="49.736511"
       x="71.790993"
       y="61.229923" /><rect
       style="fill:#ffffff;fill-opacity:1;stroke:#000000;stroke-width:0.264999;stroke-dasharray:none;stroke-opacity:1"
       id="rect1135-7-9"
       width="9.0921526"
       height="49.736511"
       x="90.160164"
       y="61.219296" /><rect
       style="fill:#ffffff;fill-opacity:1;stroke:#000000;stroke-width:0.265;stroke-dasharray:none;stroke-opacity:1"
       id="rect1135-6-1"
       width="5.335536"
       height="49.798382"
       x="82.94265"
       y="61.204311" /><rect
       style="fill:#ffffff;fill-opacity:1;stroke:#000000;stroke-width:0.264999;stroke-dasharray:none;stroke-opacity:1"
       id="rect1252-2"
       width="6.3064518"
       height="3.0167062"
       x="73.032234"
       y="62.465702" /><rect
       style="fill:#ffffff;fill-opacity:1;stroke:#000000;stroke-width:0.264999;stroke-dasharray:none;stroke-opacity:1"
       id="rect1252-5-7"
       width="6.3064518"
       height="3.0167062"
       x="91.602615"
       y="62.34074" /><rect
       style="fill:#ffffff;fill-opacity:1;stroke:#000000;stroke-width:0.264999;stroke-dasharray:none;stroke-opacity:1"
       id="rect1281-0"
       width="3.5427423"
       height="2.5740225"
       x="83.834732"
       y="62.632442" /><ellipse
       style="fill:#ffffff;fill-opacity:1;stroke:#000000;stroke-width:0.264999;stroke-dasharray:none;stroke-opacity:1"
       id="path1335-9"
       cx="76.250641"
       cy="64.007538"
       rx="0.89109206"
       ry="0.90082777" /><ellipse
       style="fill:#ffffff;fill-opacity:1;stroke:#000000;stroke-width:0.264999;stroke-dasharray:none;stroke-opacity:1"
       id="path1335-3-3"
       cx="85.648613"
       cy="63.912701"
       rx="0.89109206"
       ry="0.90082777" /><ellipse
       style="fill:#ffffff;fill-opacity:1;stroke:#000000;stroke-width:0.264999;stroke-dasharray:none;stroke-opacity:1"
       id="path1335-3-5-6"
       cx="94.864243"
       cy="63.841732"
       rx="0.89109206"
       ry="0.90082777" /><path
       style="fill:none;fill-rule:evenodd;stroke:#ff0000;stroke-width:0.265;stroke-linecap:butt;stroke-linejoin:miter;stroke-dasharray:0.795, 0.795;stroke-dashoffset:0;stroke-opacity:1"
       d="m 70.80513,63.939943 29.94216,-0.136864"
       id="path2031-0"
       inkscape:connector-type="polyline"
       inkscape:connector-curvature="0" /><rect
       style="fill:#ffffff;fill-opacity:1;stroke:#000000;stroke-width:0.330677;stroke-linecap:butt;stroke-linejoin:round;stroke-dasharray:none;stroke-dashoffset:0;stroke-opacity:1;paint-order:fill markers stroke"
       id="rect5981"
       width="27.37912"
       height="5.1707554"
       x="71.847687"
       y="105.79733" /><g
       id="page1-9"
       transform="matrix(0.19749762,0,0,0.18159519,56.584449,49.513438)"><use
         x="223.12242"
         y="80.199249"
         xlink:href="#g1-0-7"
         id="use6351" /><use
         x="230.4366"
         y="81.992516"
         xlink:href="#g0-83"
         id="use6353" /><use
         x="236.03235"
         y="81.992516"
         xlink:href="#g0-67-8"
         id="use6355" /></g><g
       id="page1-4"
       transform="matrix(0.20145605,0,0,0.18435001,30.390154,106.52241)"><use
         x="225.47437"
         y="80.199249"
         xlink:href="#g1-0-9"
         id="use8093" /><use
         x="232.78854"
         y="81.992516"
         xlink:href="#g0-109"
         id="use8095" /></g><g
       id="page1-45"
       transform="matrix(0.20013491,0,0,0.1816913,34.515806,151.98061)"><use
         x="204.99071"
         y="80.199249"
         xlink:href="#g1-0-8"
         id="use8115" /><use
         x="212.30487"
         y="81.992516"
         xlink:href="#g0-100"
         id="use8117" /><use
         x="217.00952"
         y="81.992516"
         xlink:href="#g0-101"
         id="use8119" /><use
         x="220.77324"
         y="81.992516"
         xlink:href="#g0-45"
         id="use8121" /><use
         x="223.59602"
         y="81.992516"
         xlink:href="#g0-101"
         id="use8123" /><use
         x="227.35974"
         y="81.992516"
         xlink:href="#g0-109-7"
         id="use8125" /><use
         x="234.18149"
         y="81.992516"
         xlink:href="#g0-98"
         id="use8127" /><use
         x="239.12137"
         y="81.992516"
         xlink:href="#g0-101"
         id="use8129" /><use
         x="242.88509"
         y="81.992516"
         xlink:href="#g0-100"
         id="use8131" /><use
         x="247.58974"
         y="81.992516"
         xlink:href="#g0-100"
         id="use8133" /><use
         x="252.29437"
         y="81.992516"
         xlink:href="#g0-101"
         id="use8135" /><use
         x="256.05811"
         y="81.992516"
         xlink:href="#g0-100"
         id="use8137" /></g><g
       id="page1-6"
       transform="matrix(0.15823398,0,0,0.18714096,46.525268,126.68907)"><use
         x="193.31023"
         y="80.199249"
         xlink:href="#g0-80"
         id="use8175" /><use
         x="200.94957"
         y="80.199249"
         xlink:href="#g0-97"
         id="use8177" /><use
         x="206.80255"
         y="80.199249"
         xlink:href="#g0-114"
         id="use8179" /><use
         x="211.35489"
         y="80.199249"
         xlink:href="#g0-97"
         id="use8181" /><use
         x="217.20787"
         y="80.199249"
         xlink:href="#g0-115"
         id="use8183" /><use
         x="221.82523"
         y="80.199249"
         xlink:href="#g0-105"
         id="use8185" /><use
         x="225.07689"
         y="80.199249"
         xlink:href="#g0-116"
         id="use8187" /><use
         x="229.62923"
         y="80.199249"
         xlink:href="#g0-105"
         id="use8189" /><use
         x="232.88087"
         y="80.199249"
         xlink:href="#g0-99"
         id="use8191" /><use
         x="238.08354"
         y="80.199249"
         xlink:href="#g0-115"
         id="use8193" /><use
         x="246.60289"
         y="80.199249"
         xlink:href="#g0-116"
         id="use8195" /><use
         x="251.15521"
         y="80.199249"
         xlink:href="#g0-111"
         id="use8197" /><use
         x="260.91019"
         y="80.199249"
         xlink:href="#g0-98-0"
         id="use8199" /><use
         x="267.73868"
         y="80.199249"
         xlink:href="#g0-101-3"
         id="use8201" /></g><g
       id="page1-61"
       transform="matrix(0.15980846,0,0,0.14996053,45.28673,131.66316)"><use
         x="199.63367"
         y="80.199249"
         xlink:href="#g0-100-3"
         id="use8240" /><use
         x="206.13699"
         y="80.199249"
         xlink:href="#g0-101-2"
         id="use8242" /><use
         x="211.33965"
         y="80.199249"
         xlink:href="#g0-45-1"
         id="use8244" /><use
         x="215.24164"
         y="80.199249"
         xlink:href="#g0-101-2"
         id="use8246" /><use
         x="220.44431"
         y="80.199249"
         xlink:href="#g0-109-0"
         id="use8248" /><use
         x="229.87411"
         y="80.199249"
         xlink:href="#g0-98-06"
         id="use8250" /><use
         x="236.70261"
         y="80.199249"
         xlink:href="#g0-101-2"
         id="use8252" /><use
         x="241.90526"
         y="80.199249"
         xlink:href="#g0-100-3"
         id="use8254" /><use
         x="248.40858"
         y="80.199249"
         xlink:href="#g0-100-3"
         id="use8256" /><use
         x="254.91191"
         y="80.199249"
         xlink:href="#g0-101-2"
         id="use8258" /><use
         x="260.11456"
         y="80.199249"
         xlink:href="#g0-100-3"
         id="use8260" /></g><path
       style="fill:#0000ff;fill-opacity:1;fill-rule:evenodd;stroke:#000000;stroke-width:0.264583px;stroke-linecap:butt;stroke-linejoin:miter;stroke-opacity:1"
       d="m 75.91328,123.34455 -0.07784,40.1164"
       id="path8647"
       inkscape:connector-type="polyline"
       inkscape:connector-curvature="0" /><path
       style="fill:#0000ff;fill-opacity:1;stroke:#000000;stroke-width:0.0292881;stroke-linecap:butt;stroke-linejoin:round;stroke-dasharray:none;stroke-dashoffset:0;stroke-opacity:1;paint-order:fill markers stroke"
       d="m 75.727,157.12817 c 0.01042,-3.46992 0.02574,-11.22377 0.03402,-17.23079 0.0083,-6.00702 0.02304,-12.18839 0.03284,-13.73639 l 0.01778,-2.81453 h 0.116523 0.116519 l -0.0177,3.95497 c -0.0097,2.17523 -0.02432,8.57372 -0.03239,14.21887 -0.0081,5.64515 -0.02307,12.88582 -0.03332,16.09036 l -0.01863,5.82645 h -0.117298 -0.117295 z"
       id="path8718" /><g
       id="page1-5"
       transform="matrix(0.39863889,0,0,0.39863889,-31.828633,141.17326)"><use
         x="228.24829"
         y="80.199249"
         xlink:href="#g0-99-5"
         id="use9087" /><use
         x="233.45094"
         y="80.199249"
         xlink:href="#g0-41"
         id="use9089" /></g><g
       id="page1-65"
       transform="matrix(0.39863889,0,0,0.39863889,-7.4326477,83.54507)"><use
         x="227.59796"
         y="80.199249"
         xlink:href="#g0-98-7"
         id="use9105" /><use
         x="234.10127"
         y="80.199249"
         xlink:href="#g0-41-4"
         id="use9107" /></g><g
       id="page1-3"
       transform="matrix(0.39863889,0,0,0.39863889,-57.144512,83.858582)"><use
         x="227.92313"
         y="80.199249"
         xlink:href="#g0-97-9"
         id="use9123" /><use
         x="233.77611"
         y="80.199249"
         xlink:href="#g0-41-6"
         id="use9125" /></g></g></svg>
